<svg version="1.1" viewBox="0.0 0.0 960.0 720.0" fill="none" stroke="none" stroke-linecap="square" stroke-miterlimit="10" xmlns:xlink="http://www.w3.org/1999/xlink" xmlns="http://www.w3.org/2000/svg"><clipPath id="p.0"><path d="m0 0l960.0 0l0 720.0l-960.0 0l0 -720.0z" clip-rule="nonzero"/></clipPath><g clip-path="url(#p.0)"><path fill="#000000" fill-opacity="0.0" d="m0 0l960.0 0l0 720.0l-960.0 0z" fill-rule="evenodd"/><path fill="#6aa84f" d="m122.24147 114.95538l0 0c0 -6.5056534 5.2738724 -11.779533 11.779526 -11.779533l0 0c3.1241302 0 6.1203003 1.2410583 8.3293915 3.4501495c2.209076 2.2090836 3.4501343 5.2052536 3.4501343 8.329384l0 0c0 6.5056534 -5.2738647 11.779526 -11.779526 11.779526l0 0c-6.5056534 0 -11.779526 -5.2738724 -11.779526 -11.779526z" fill-rule="evenodd"/><path stroke="#000000" stroke-width="1.0" stroke-linejoin="round" stroke-linecap="butt" d="m122.24147 114.95538l0 0c0 -6.5056534 5.2738724 -11.779533 11.779526 -11.779533l0 0c3.1241302 0 6.1203003 1.2410583 8.3293915 3.4501495c2.209076 2.2090836 3.4501343 5.2052536 3.4501343 8.329384l0 0c0 6.5056534 -5.2738647 11.779526 -11.779526 11.779526l0 0c-6.5056534 0 -11.779526 -5.2738724 -11.779526 -11.779526z" fill-rule="evenodd"/><path fill="#000000" fill-opacity="0.0" d="m23.24672 208.61655l97.70079 -97.70078l41.16536 41.102364l-97.7008 97.70079z" fill-rule="evenodd"/><path fill="#000000" d="m62.856846 203.45667l-8.104782 -8.092377l3.0383492 -3.0383606q0.9280777 -0.92807007 1.7348099 -1.2486725q0.80672836 -0.32058716 1.6357651 -0.111068726q0.8290329 0.18743896 1.3818817 0.7394409q0.51968 0.5188904 0.6968117 1.2698364q0.17712402 0.7288513 -0.098869324 1.5793762q0.9392891 -0.5194397 1.8567085 -0.39831543q0.91742706 0.12113953 1.6250763 0.827713q0.57496643 0.5740814 0.81840515 1.3029175q0.24343872 0.7288208 0.15525818 1.3473358q-0.08818817 0.618515 -0.47477722 1.2923737q-0.39764404 0.6628113 -1.1710434 1.436203l-3.0935936 3.0935974zm-3.6275177 -5.763748l1.7567215 -1.7567139q0.7071037 -0.70710754 0.9169502 -1.1158295q0.2871704 -0.5302429 0.2206688 -1.016159q-0.077560425 -0.4969635 -0.49772644 -0.91648865q-0.40911102 -0.40847778 -0.90652084 -0.5076904q-0.49742126 -0.121292114 -0.9725952 0.13290405q-0.47518158 0.2321167 -1.3480148 1.10495l-1.6241379 1.6241302l2.4546547 2.4508972zm3.7372704 3.7315521l2.021881 -2.021881q0.5192795 -0.5192871 0.6960373 -0.7623291q0.29825592 -0.43084717 0.38652802 -0.82847595q0.09931946 -0.40867615 -0.044540405 -0.86143494q-0.1328125 -0.46380615 -0.5198059 -0.85020447q-0.45333862 -0.45265198 -1.017067 -0.5518341q-0.56373215 -0.09918213 -1.1052132 0.17713928q-0.552536 0.26527405 -1.3259354 1.0386658l-1.8782501 1.8782501l2.7863655 2.7821045zm10.452095 -9.988068q-0.07697296 1.0271606 -0.38617706 1.7341156q-0.32026672 0.6959076 -0.905838 1.2814789q-0.9722748 0.9722748 -1.9670029 1.0168304q-0.9947357 0.044555664 -1.7244949 -0.68408203q-0.43122864 -0.4305725 -0.586174 -0.98272705q-0.166008 -0.56318665 -0.066734314 -1.0823059q0.09926605 -0.541214 0.3864441 -1.0493622q0.22091675 -0.3755951 0.7401428 -1.0274048q1.0605545 -1.3478088 1.4360504 -2.1210632q-0.21008301 -0.20976257 -0.2653656 -0.2649536q-0.60813904 -0.60720825 -1.1276093 -0.57388306q-0.72946167 0.04446411 -1.4807663 0.7957611q-0.69605255 0.6960602 -0.78424835 1.2924805q-0.08820343 0.5743408 0.37631226 1.3472748l-1.1049576 0.8397827q-0.4866104 -0.750824 -0.5752945 -1.4355316q-0.07763672 -0.69577026 0.2978592 -1.4690094q0.36444092 -0.7842865 1.1157455 -1.5355988q0.751297 -0.751297 1.3922501 -1.0386963q0.6520004 -0.29844666 1.1383362 -0.25445557q0.48634338 0.04399109 0.98384094 0.36408997q0.30955505 0.19868469 0.97296906 0.861084l1.3268433 1.3248138q1.3931808 1.3910522 1.8133087 1.7001343q0.4311676 0.2980194 0.9617615 0.45243835l-1.038559 1.0385742q-0.46427917 -0.15444946 -0.9286423 -0.52978516zm-2.299797 -2.1417084q-0.3202362 0.7621765 -1.2481918 1.9994965q-0.5302658 0.7070465 -0.67381287 1.0715637q-0.14354706 0.3645172 -0.06604004 0.7289429q0.07750702 0.3423462 0.33181763 0.5962677q0.3980484 0.39744568 0.96173096 0.36408997q0.5747223 -0.044387817 1.1492462 -0.61891174q0.5745239 -0.5745239 0.77321625 -1.2593536q0.19867706 -0.7069092 -0.033683777 -1.3584442q-0.16597748 -0.49693298 -0.8293991 -1.1593323l-0.36488342 -0.36431885zm3.3431015 -0.95661926l0.8285217 -1.1378784q0.6744156 0.51882935 1.3707199 0.46333313q0.6962967 -0.07757568 1.3702545 -0.7515259q0.6850128 -0.6850128 0.74004364 -1.2924805q0.04397583 -0.61849976 -0.3319626 -0.9938507q-0.33171082 -0.33120728 -0.8180008 -0.24266052q-0.3426056 0.077438354 -1.348175 0.68525696q-1.3702316 0.81781006 -2.0001526 1.0499725q-0.62992096 0.21008301 -1.2047195 0.07777405q-0.5637436 -0.14335632 -0.9949722 -0.57392883q-0.3980484 -0.39744568 -0.55298615 -0.90541077q-0.15493011 -0.50798035 -0.066711426 -1.038147q0.055107117 -0.4086609 0.34228516 -0.9168091q0.2871704 -0.5302429 0.7401581 -0.9832306q0.6960602 -0.6960602 1.4143677 -1.0166168q0.7183075 -0.32055664 1.3041458 -0.22138977q0.58582306 0.0770874 1.2602234 0.55174255l-0.83958435 1.1047516q-0.51963043 -0.38635254 -1.0943527 -0.31987q-0.57471466 0.066482544 -1.1492386 0.64100647q-0.6850128 0.6850128 -0.7511215 1.2151642q-0.06612396 0.5080719 0.23241425 0.80615234q0.19902802 0.19871521 0.47535706 0.23175049q0.27632904 0.03302002 0.6410217 -0.110687256q0.20996094 -0.099487305 1.1381912 -0.62997437q1.3260345 -0.77360535 1.9338531 -1.0057678q0.596756 -0.24319458 1.1715393 -0.13298035q0.5858383 0.09918213 1.0944595 0.60702515q0.49756622 0.49679565 0.6415329 1.2367096q0.14395905 0.7178345 -0.16521454 1.5131378q-0.2981186 0.784256 -0.9831314 1.4692688q-1.1490479 1.1490479 -2.2211227 1.2709503q-1.0720673 0.121902466 -2.1776428 -0.65078735zm0.846756 -11.254471l-1.1388779 -1.1371307l0.9943695 -0.9943695l1.1388779 1.1371307l-0.9943695 0.9943695zm6.965912 6.955246l-5.871269 -5.8622894l0.9943695 -0.9943695l5.871269 5.8622894l-0.9943695 0.9943695zm4.1802216 -8.489151l1.116005 -0.85084534q0.84046173 1.1703796 0.7525101 2.4073792q-0.07689667 1.2259369 -1.0381241 2.1871643q-1.2042923 1.2042999 -2.7295914 1.1607056q-1.5253067 -0.06568909 -2.9958878 -1.5340118q-0.95090485 -0.94944763 -1.3491898 -1.9653778q-0.39830017 -1.0380096 -0.11130524 -2.0321198q0.29803467 -1.0051422 1.0493393 -1.7564392q0.9612198 -0.9612274 2.055397 -1.0831299q1.0831223 -0.13294983 2.1444702 0.5955658l-0.817482 1.1047516q-0.7296524 -0.4414978 -1.3817444 -0.38601685q-0.6410446 0.044418335 -1.1382294 0.54159546q-0.7513046 0.75131226 -0.6845932 1.7673645q0.06669617 0.9939575 1.238739 2.1641998q1.1830978 1.1812897 2.1778793 1.2692719q0.9837265 0.076934814 1.7129288 -0.65226746q0.5855789 -0.58558655 0.618454 -1.3255615q0.032859802 -0.7620697 -0.6195755 -1.6122284zm8.21624 -3.907318l-7.67218 -4.061371l1.0275116 -1.0275116l4.322571 2.4391327l1.6030045 0.91607666q-0.06636047 -0.11042786 -0.89585114 -1.5127411l-2.5106506 -4.3615417l1.0275116 -1.0275116l4.278389 2.5275116l1.4150696 0.81674194l-0.7963562 -1.45755l-2.3890839 -4.3947144l0.9722748 -0.9722748l4.0372086 7.696335l-1.038559 1.0385742l-4.444206 -2.582672l-1.2382126 -0.7726288l3.340126 5.697586l-1.0385666 1.038559zm3.7708282 -9.648651q-1.6253815 -1.6228943 -1.5044479 -3.3127136q0.10998535 -1.4137115 1.192749 -2.4964752q1.2153397 -1.215332 2.7737885 -1.1828003q1.5584488 0.0104522705 2.9626846 1.4125366q1.1278152 1.1260834 1.4376755 2.1199646q0.30986023 0.99386597 0.022872925 2.0100555q-0.2869873 0.99409485 -1.0603867 1.7674866q-1.226387 1.2263947 -2.7737885 1.204895q-1.5584488 -0.03253174 -3.0511475 -1.5229492zm1.0275116 -1.0275116q1.1278152 1.1260834 2.177864 1.2030029q1.0610886 0.06585693 1.8013382 -0.6743927q0.74025726 -0.7402649 0.6624832 -1.789444q-0.066719055 -1.0602264 -1.2277069 -2.2194366q-1.0835876 -1.0819244 -2.1446762 -1.1477814q-1.0500488 -0.0769043 -1.7902985 0.66334534q-0.74024963 0.74024963 -0.6735306 1.8004761q0.066719055 1.038147 1.1945267 2.1642303zm8.570396 -2.692566l-5.871269 -5.8622894l0.8949356 -0.894928l0.88455963 0.8832092q-0.27668762 -0.9607544 -0.18845367 -1.4467468q0.08824158 -0.48597717 0.44179535 -0.8395233q0.49718475 -0.49719238 1.3371124 -0.6963043l0.57523346 1.2588196q-0.5746918 0.15484619 -0.9392929 0.51945496q-0.32040405 0.32040405 -0.38654327 0.7842865q-0.06614685 0.44180298 0.17719269 0.90556335q0.3650055 0.69566345 0.9952545 1.3249359l3.073845 3.0691528l-0.9943695 0.9943695zm3.7786026 -3.7786102l-8.104782 -8.092377l0.9943695 -0.9943695l4.621826 4.6147614l-0.034973145 -4.7380066l1.2926788 -1.2926788l-0.06462097 4.417755l6.1568604 1.2235565l-1.226387 1.2263947l-4.941002 -1.0694122l-0.03262329 1.3805542l2.333023 2.3294525l-0.9943695 0.9943695zm-1.3090591 -12.612106l-1.1388702 -1.1371307l0.9943695 -0.9943695l1.1388702 1.1371307l-0.9943695 0.9943695zm6.965912 6.955261l-5.8712616 -5.8622894l0.9943619 -0.9943695l5.871269 5.8622894l-0.9943695 0.9943695zm2.5135498 -2.5135498l-5.871269 -5.8622894l0.894928 -0.894928l0.82927704 0.8280029q-0.3211441 -1.6013031 0.9052429 -2.8276825q0.5303345 -0.5303345 1.1602402 -0.7845917q0.62991333 -0.2542572 1.1604767 -0.16610718q0.530571 0.088150024 1.0501785 0.43032837q0.33167267 0.2207489 1.0172043 0.9052429l3.6156387 3.6101074l-0.9943695 0.9943695l-3.5714111 -3.5659485q-0.6081314 -0.60720825 -1.0282059 -0.78375244q-0.4200821 -0.19863892 -0.8953018 -0.07696533q-0.46418 0.11061096 -0.8619232 0.5083618q-0.64081573 0.6408081 -0.6957474 1.5133362q-0.05493927 0.85043335 1.072876 1.9765167l3.2065353 3.2016296l-0.9943695 0.9943695zm6.590828 -5.618561l1.1160126 -0.8287506q0.50857544 0.3973999 0.9838104 0.31991577q0.65208435 -0.09965515 1.2928925 -0.74046326q0.6850128 -0.6850128 0.7842407 -1.3366699q0.099227905 -0.65164185 -0.26576233 -1.2810364q-0.2211914 -0.37542725 -1.2052612 -1.3579865q0.12211609 1.4246674 -0.8501587 2.3969421q-1.215332 1.215332 -2.7517471 1.0060883q-1.5364151 -0.20925903 -2.7637482 -1.4347076q-0.84033203 -0.8390503 -1.2496643 -1.8439178q-0.39829254 -1.0159302 -0.21076202 -1.9768524q0.19857788 -0.97198486 0.97197723 -1.7453766q1.038559 -1.038559 2.5528564 -0.8734741l-0.70764923 -0.7065735l0.9170227 -0.9170227l5.075165 5.067398q1.3710632 1.3689728 1.6698303 2.2192688q0.29875183 0.850296 0.022781372 1.7891693q-0.2759552 0.9388733 -1.1598358 1.8227539q-1.0496216 1.0496063 -2.1769257 1.2267456q-1.116272 0.16609192 -2.0450745 -0.80545044zm-2.6985474 -4.350418q1.1499329 1.1481628 2.1336594 1.2250977q0.99477386 0.06588745 1.679779 -0.61912537q0.6850052 -0.6850128 0.62937164 -1.6679382q-0.06669617 -0.9939575 -1.1945114 -2.120041q-1.0835876 -1.0819244 -2.1004639 -1.1478119q-1.0279388 -0.076919556 -1.7019043 0.5970459q-0.66291046 0.6629181 -0.5851517 1.667923q0.07775116 1.0049896 1.1392212 2.0648499z" fill-rule="nonzero"/><path fill="#000000" d="m83.04355 206.11394l1.116005 -0.85084534q0.84046173 1.1703796 0.7525101 2.4073792q-0.07689667 1.2259369 -1.0381241 2.1871643q-1.2042923 1.2042999 -2.7295914 1.1607056q-1.5253067 -0.06568909 -2.9958878 -1.5340118q-0.95090485 -0.94944763 -1.3491898 -1.9653778q-0.39830017 -1.0380096 -0.11130524 -2.0321198q0.29803467 -1.0051422 1.0493393 -1.7564392q0.9612198 -0.9612274 2.055397 -1.0831299q1.0831223 -0.13294983 2.1444702 0.5955658l-0.817482 1.1047516q-0.7296524 -0.4414978 -1.3817444 -0.38601685q-0.6410446 0.044418335 -1.1382294 0.54159546q-0.751297 0.75131226 -0.6845932 1.7673645q0.06669617 0.9939575 1.238739 2.1641998q1.1830978 1.1812897 2.1778793 1.2692719q0.9837265 0.076934814 1.7129364 -0.65226746q0.5855713 -0.58558655 0.61844635 -1.3255615q0.03286743 -0.7620697 -0.6195755 -1.6122284zm0.67336273 -2.2422638q-1.6253815 -1.6228943 -1.5044479 -3.3127136q0.10998535 -1.4137115 1.1927414 -2.4964752q1.2153397 -1.215332 2.773796 -1.1828003q1.5584412 0.0104522705 2.9626846 1.4125366q1.1278152 1.1260986 1.4376755 2.1199646q0.3098526 0.99386597 0.022872925 2.0100555q-0.28699493 0.99409485 -1.0603867 1.7674866q-1.2263947 1.2263947 -2.7737885 1.204895q-1.5584564 -0.03253174 -3.0511475 -1.5229492zm1.0275116 -1.0275116q1.1278152 1.1260986 2.1778564 1.2030029q1.0610962 0.06585693 1.8013458 -0.6743927q0.74024963 -0.74024963 0.6624832 -1.7894287q-0.066726685 -1.0602417 -1.2277069 -2.219452q-1.0835876 -1.0819244 -2.1446838 -1.1477814q-1.0500412 -0.0769043 -1.7902908 0.66334534q-0.74025726 0.74024963 -0.6735306 1.8004761q0.066711426 1.038147 1.1945267 2.1642303zm8.581444 -2.7036133l-5.871269 -5.8622894l0.8949356 -0.894928l0.82927704 0.8280029q-0.3211441 -1.6013031 0.9052429 -2.8276825q0.53032684 -0.5303345 1.1602402 -0.7845917q0.62991333 -0.25427246 1.1604767 -0.16612244q0.53056335 0.08816528 1.0501785 0.43032837q0.33166504 0.22076416 1.0172043 0.9052429l3.6156387 3.6101074l-0.9943695 0.9943695l-3.5714111 -3.5659332q-0.60813904 -0.60720825 -1.0282059 -0.7837677q-0.4200821 -0.19862366 -0.89530945 -0.07696533q-0.46417236 0.11062622 -0.8619232 0.5083771q-0.64081573 0.6408081 -0.69573975 1.5133362q-0.05493927 0.85043335 1.072876 1.9765167l3.2065277 3.2016296l-0.9943695 0.9943695zm6.52417 -6.52417l-5.0972824 -5.0894775l-0.87283325 0.87283325l-0.77399445 -0.77279663l0.8728409 -0.8728485l-0.630249 -0.62927246q-0.5860214 -0.5851288 -0.7630234 -0.98265076q-0.24336243 -0.53004456 -0.13306427 -1.1264801q0.12135315 -0.6074829 0.77321625 -1.2593384q0.41984558 -0.41984558 1.0275879 -0.8287201l0.72987366 1.0157928q-0.3646469 0.25416565 -0.6408615 0.53038025q-0.45298767 0.45298767 -0.44178772 0.8395386q1.449585E-4 0.37550354 0.5308838 0.905426l0.5417938 0.5409546l1.1379929 -1.1379852l0.77399445 0.77279663l-1.1380005 1.1380005l5.097275 5.0894775l-0.9943619 0.9943695zm-4.0546265 -9.866547l-1.1388702 -1.1371307l0.9943695 -0.9943695l1.1388702 1.1371307l-0.9943695 0.9943695zm6.965912 6.955261l-5.871269 -5.8622894l0.9943695 -0.9943695l5.871269 5.8622894l-0.9943695 0.9943695zm2.8122253 -1.8399658l1.1160202 -0.8287506q0.50857544 0.39741516 0.98381805 0.31991577q0.6520767 -0.09965515 1.2928925 -0.74046326q0.6850052 -0.6850128 0.7842331 -1.3366699q0.099220276 -0.65164185 -0.26576233 -1.2810364q-0.22119904 -0.375412 -1.2052689 -1.3579865q0.12212372 1.4246674 -0.85014343 2.3969421q-1.2153397 1.2153473 -2.7517548 1.0060883q-1.5364227 -0.20925903 -2.7637482 -1.4347076q-0.84033203 -0.8390503 -1.2496719 -1.8439178q-0.3982849 -1.0159302 -0.2107544 -1.9768524q0.19857788 -0.9719696 0.97197723 -1.7453766q1.038559 -1.038559 2.5528564 -0.8734741l-0.70764923 -0.7065735l0.91703033 -0.9170227l5.075165 5.067398q1.3710632 1.3689728 1.6698151 2.2192688q0.29875183 0.850296 0.022789001 1.7891693q-0.2759552 0.9388733 -1.1598434 1.8227539q-1.0496063 1.0496216 -2.1769257 1.2267609q-1.1162643 0.16609192 -2.0450745 -0.8054657zm-2.6985397 -4.350418q1.1499252 1.1481628 2.1336517 1.2250977q0.9947815 0.06588745 1.6797867 -0.61912537q0.6850128 -0.6850128 0.62937164 -1.667923q-0.06669617 -0.9939728 -1.1945114 -2.1200562q-1.0835876 -1.0819244 -2.1004715 -1.1478119q-1.0279312 -0.0769043 -1.7018967 0.5970459q-0.66291046 0.6629181 -0.5851593 1.667923q0.07775879 1.0050049 1.1392288 2.0648499zm12.536896 -6.460205l-0.862442 -0.86112976q0.31011963 1.6786194 -0.87207794 2.8608246q-0.5192795 0.51927185 -1.1712952 0.7735443q-0.6409683 0.2432251 -1.1604767 0.16610718q-0.530571 -0.088150024 -1.0501785 -0.43032837q-0.35378265 -0.24284363 -0.9840317 -0.8721161l-3.6377563 -3.632187l0.9943695 -0.9943695l3.250763 3.2457733q0.7850418 0.783844 1.1056595 0.99357605q0.4974823 0.29800415 1.0169373 0.2204895q0.5304947 -0.08856201 0.9724426 -0.5305023q0.45298767 -0.45298767 0.61854553 -1.0604858q0.16555023 -0.6295929 -0.077819824 -1.1817169q-0.2323227 -0.5631714 -0.9841995 -1.3138885l-3.1401901 -3.1353912l0.9943695 -0.9943695l5.871269 5.8622894l-0.88388824 0.8838806zm2.4362106 -2.436203l-5.871269 -5.8622894l0.894928 -0.894928l0.88455963 0.8832092q-0.27668762 -0.9607544 -0.18844604 -1.4467316q0.08823395 -0.48599243 0.44178772 -0.8395386q0.49718475 -0.49717712 1.33712 -0.6963043l0.57522583 1.2588348q-0.57468414 0.15483093 -0.9392929 0.5194397q-0.32040405 0.32040405 -0.38654327 0.78430176q-0.06614685 0.44178772 0.17719269 0.90556335q0.3650055 0.6956482 0.9952545 1.3249359l3.073845 3.0691376l-0.9943619 0.9943695zm6.8716354 -8.330048q-0.07698059 1.0271606 -0.3861847 1.7341156q-0.32026672 0.6959076 -0.905838 1.2814789q-0.9722748 0.9722748 -1.9670029 1.0168304q-0.9947357 0.044555664 -1.7244949 -0.68408203q-0.43122864 -0.4305725 -0.586174 -0.98272705q-0.166008 -0.56318665 -0.066734314 -1.0823059q0.09926605 -0.541214 0.3864441 -1.0493622q0.22091675 -0.3755951 0.7401428 -1.0274048q1.0605545 -1.3478088 1.4360504 -2.1210632q-0.21008301 -0.20976257 -0.2653656 -0.2649536q-0.60813904 -0.60720825 -1.1276016 -0.57388306q-0.7294693 0.04446411 -1.4807739 0.7957611q-0.69605255 0.6960602 -0.78424835 1.2924805q-0.08820343 0.5743408 0.37631226 1.3472748l-1.1049576 0.8397827q-0.4866104 -0.750824 -0.5752945 -1.4355316q-0.07763672 -0.69577026 0.2978592 -1.4690094q0.36444092 -0.7842865 1.1157455 -1.5355988q0.7513046 -0.751297 1.3922501 -1.0386963q0.6520004 -0.29844666 1.1383438 -0.25445557q0.48633575 0.04399109 0.9838333 0.36408997q0.30955505 0.19868469 0.9729767 0.861084l1.3268356 1.3248138q1.3931808 1.3910522 1.8133087 1.7001343q0.4311676 0.2980194 0.9617615 0.45243835l-1.038559 1.0385742q-0.46427917 -0.15444946 -0.92863464 -0.52978516zm-2.299797 -2.1417084q-0.32024384 0.7621765 -1.2481995 1.9994965q-0.5302658 0.70703125 -0.67381287 1.0715637q-0.14354706 0.3645172 -0.06603241 0.7289429q0.07749939 0.3423462 0.33181 0.5962677q0.3980484 0.39744568 0.96173096 0.36408997q0.5747223 -0.044387817 1.1492538 -0.61891174q0.5745239 -0.5745392 0.7732086 -1.2593536q0.19867706 -0.7069092 -0.033676147 -1.3584442q-0.1659851 -0.49693298 -0.82940674 -1.1593323l-0.3648758 -0.36431885zm6.768799 -2.6587524l1.0281982 0.73957825q-0.33139038 0.50816345 -0.6628418 0.83961487q-0.54138184 0.54138184 -1.0055542 0.6740875q-0.47521973 0.121673584 -0.8731766 -0.032791138q-0.40901947 -0.16551208 -1.3046341 -1.0597534l-3.372383 -3.3672333l-0.7292099 0.7292023l-0.7739868 -0.77279663l0.7292023 -0.7292023l-1.4595261 -1.4572906l0.3972931 -1.5905457l2.0566025 2.0534668l0.9943695 -0.9943695l0.7739868 0.77279663l-0.9943695 0.9943695l3.4276733 3.4224243q0.431221 0.4305725 0.5970459 0.5078125q0.17686462 0.066207886 0.37580872 0.021942139q0.18786621 -0.055282593 0.408844 -0.27626038q0.16572571 -0.16572571 0.3866577 -0.47505188zm-5.092491 -7.038803l-1.1388779 -1.1371307l0.9943695 -0.9943695l1.1388702 1.1371307l-0.9943619 0.9943695zm6.965904 6.955261l-5.8712616 -5.8622894l0.9943695 -0.9943695l5.8712616 5.8622894l-0.9943695 0.9943695zm-0.80326843 -5.0745544q-1.6253815 -1.6228943 -1.5044403 -3.312729q0.10998535 -1.4137115 1.1927338 -2.4964752q1.2153473 -1.215332 2.7738037 -1.1828003q1.5584412 0.0104522705 2.962677 1.4125366q1.1278229 1.1260986 1.4376831 2.1199646q0.30984497 0.99386597 0.022872925 2.0100555q-0.28700256 0.99409485 -1.0603943 1.7675018q-1.2263947 1.2263794 -2.7737885 1.2048798q-1.5584564 -0.03253174 -3.0511475 -1.522934zm1.0275116 -1.0275269q1.1278229 1.1260986 2.1778564 1.2030029q1.0610962 0.06585693 1.8013458 -0.6743927q0.7402649 -0.74024963 0.66249084 -1.7894287q-0.066726685 -1.0602264 -1.2277069 -2.2194366q-1.0835876 -1.0819397 -2.1446838 -1.1477966q-1.0500488 -0.0769043 -1.7902985 0.66334534q-0.74024963 0.74024963 -0.67352295 1.8004761q0.066711426 1.038147 1.194519 2.1642303zm8.581451 -2.7036133l-5.871277 -5.8622894l0.89494324 -0.894928l0.8292694 0.8280029q-0.32113647 -1.6013031 0.9052429 -2.8276825q0.5303345 -0.5303345 1.1602478 -0.7845917q0.62991333 -0.2542572 1.1604767 -0.16610718q0.53056335 0.088150024 1.0501709 0.43032837q0.33166504 0.22076416 1.0171967 0.9052429l3.6156464 3.6101074l-0.9943695 0.9943695l-3.5714111 -3.5659485q-0.60813904 -0.60720825 -1.0281982 -0.78375244q-0.42008972 -0.19863892 -0.89530945 -0.07696533q-0.46417236 0.11061096 -0.8619232 0.5083618q-0.6408081 0.6408081 -0.69573975 1.5133362q-0.0549469 0.85043335 1.072876 1.9765167l3.2065277 3.2016296l-0.9943695 0.9943695z" fill-rule="nonzero"/><path fill="#000000" fill-opacity="0.0" d="m166.57545 114.95538l0 0c0 -6.5056534 5.27388 -11.779533 11.779526 -11.779533l0 0c3.1241302 0 6.1203003 1.2410583 8.3293915 3.4501495c2.2090912 2.2090836 3.4501495 5.2052536 3.4501495 8.329384l0 0c0 6.5056534 -5.27388 11.779526 -11.779541 11.779526l0 0c-6.5056458 0 -11.779526 -5.2738724 -11.779526 -11.779526z" fill-rule="evenodd"/><path stroke="#000000" stroke-width="1.0" stroke-linejoin="round" stroke-linecap="butt" d="m166.57545 114.95538l0 0c0 -6.5056534 5.27388 -11.779533 11.779526 -11.779533l0 0c3.1241302 0 6.1203003 1.2410583 8.3293915 3.4501495c2.2090912 2.2090836 3.4501495 5.2052536 3.4501495 8.329384l0 0c0 6.5056534 -5.27388 11.779526 -11.779541 11.779526l0 0c-6.5056458 0 -11.779526 -5.2738724 -11.779526 -11.779526z" fill-rule="evenodd"/><path fill="#000000" fill-opacity="0.0" d="m163.22113 94.08l30.267715 0l0 42.015747l-30.267715 0z" fill-rule="evenodd"/><path fill="#000000" d="m176.518 117.71875q0 -0.328125 0 -0.5q0 -0.96875 0.265625 -1.671875q0.203125 -0.515625 0.640625 -1.0625q0.328125 -0.390625 1.171875 -1.140625q0.859375 -0.75 1.109375 -1.1875q0.265625 -0.453125 0.265625 -0.984375q0 -0.953125 -0.75 -1.671875q-0.734375 -0.734375 -1.828125 -0.734375q-1.046875 0 -1.75 0.65625q-0.703125 0.65625 -0.921875 2.046875l-1.6875 -0.203125q0.234375 -1.859375 1.359375 -2.84375q1.125 -1.0 2.96875 -1.0q1.96875 0 3.125 1.0625q1.171875 1.0625 1.171875 2.578125q0 0.875 -0.40625 1.609375q-0.40625 0.734375 -1.609375 1.796875q-0.796875 0.703125 -1.046875 1.046875q-0.25 0.34375 -0.375 0.78125q-0.109375 0.4375 -0.125 1.421875l-1.578125 0zm-0.09375 3.28125l0 -1.875l1.859375 0l0 1.875l-1.859375 0z" fill-rule="nonzero"/><path fill="#000000" fill-opacity="0.0" d="m468.22046 115.08662l0 0c0 -6.5056534 5.2738953 -11.779533 11.779541 -11.779533l0 0c3.124115 0 6.1203003 1.2410583 8.329376 3.4501495c2.2091064 2.2090912 3.4501648 5.2052536 3.4501648 8.329384l0 0c0 6.5056534 -5.2738953 11.779526 -11.779541 11.779526l0 0c-6.5056458 0 -11.779541 -5.2738724 -11.779541 -11.779526z" fill-rule="evenodd"/><path stroke="#000000" stroke-width="1.0" stroke-linejoin="round" stroke-linecap="butt" d="m468.22046 115.08662l0 0c0 -6.5056534 5.2738953 -11.779533 11.779541 -11.779533l0 0c3.124115 0 6.1203003 1.2410583 8.329376 3.4501495c2.2091064 2.2090912 3.4501648 5.2052536 3.4501648 8.329384l0 0c0 6.5056534 -5.2738953 11.779526 -11.779541 11.779526l0 0c-6.5056458 0 -11.779541 -5.2738724 -11.779541 -11.779526z" fill-rule="evenodd"/><path fill="#000000" fill-opacity="0.0" d="m471.67062 106.75723l16.661407 16.661415" fill-rule="evenodd"/><path stroke="#ff0000" stroke-width="4.0" stroke-linejoin="round" stroke-linecap="butt" d="m471.67062 106.75723l16.661407 16.661415" fill-rule="evenodd"/><path fill="#000000" fill-opacity="0.0" d="m473.27426 124.48952l15.055115 -17.732285" fill-rule="evenodd"/><path stroke="#ff0000" stroke-width="4.0" stroke-linejoin="round" stroke-linecap="butt" d="m473.27426 124.48952l15.055115 -17.732285" fill-rule="evenodd"/><path fill="#000000" fill-opacity="0.0" d="m379.4987 201.59341l89.35434 -89.354324l41.165344 41.102356l-89.35431 89.35434z" fill-rule="evenodd"/><path fill="#000000" d="m415.88336 199.659l-8.104767 -8.092392l5.4690247 -5.4690247l0.9508972 0.94944763l-4.397339 4.3973236l2.5099487 2.5060883l3.8006897 -3.8006897l0.9619751 0.96047974l-3.8006897 3.800705l3.6819763 3.6763458l-1.0717163 1.0717163zm9.827118 -11.285538q-0.07696533 1.0271606 -0.38616943 1.7341156q-0.32028198 0.6959076 -0.9058533 1.2814789q-0.9722595 0.9722748 -1.9670105 1.0168304q-0.99472046 0.044555664 -1.7244873 -0.68408203q-0.43121338 -0.4305725 -0.58618164 -0.98272705q-0.1659851 -0.5632019 -0.066711426 -1.0823212q0.09927368 -0.54119873 0.3864441 -1.0493469q0.22091675 -0.3755951 0.7401428 -1.0274048q1.0605469 -1.3478241 1.4360352 -2.1210632q-0.21008301 -0.20976257 -0.26535034 -0.26496887q-0.6081543 -0.607193 -1.1276245 -0.5738678q-0.72946167 0.04446411 -1.4807434 0.7957611q-0.69607544 0.6960602 -0.78427124 1.2924805q-0.0881958 0.5743408 0.37631226 1.3472595l-1.10495 0.839798q-0.48660278 -0.750824 -0.57528687 -1.4355469q-0.07763672 -0.695755 0.29785156 -1.4690094q0.36444092 -0.7842865 1.1157532 -1.5355835q0.75128174 -0.751297 1.3922424 -1.0386963q0.65200806 -0.29844666 1.1383362 -0.25445557q0.48635864 0.04399109 0.9838562 0.36408997q0.3095398 0.19866943 0.9729614 0.861084l1.3268433 1.3248138q1.3931885 1.391037 1.8132935 1.700119q0.43118286 0.29803467 0.9617615 0.4524536l-1.0385437 1.038559q-0.46429443 -0.1544342 -0.9286499 -0.5297699zm-2.2998047 -2.1417084q-0.32022095 0.7621765 -1.2481995 1.9994965q-0.5302429 0.70703125 -0.6737976 1.0715485q-0.14355469 0.3645172 -0.06604004 0.72895813q0.07751465 0.3423462 0.33181763 0.5962677q0.39804077 0.39743042 0.96173096 0.36408997q0.57473755 -0.044403076 1.1492615 -0.618927q0.5745239 -0.5745239 0.77319336 -1.2593384q0.19869995 -0.70692444 -0.03366089 -1.3584442q-0.1659851 -0.49693298 -0.82940674 -1.1593323l-0.36489868 -0.36431885zm-1.46698 -6.554245l-1.1388855 -1.1371307l0.99438477 -0.9943695l1.138855 1.1371307l-0.99435425 0.9943695zm6.965912 6.955246l-5.871277 -5.862274l0.99435425 -0.9943695l5.871277 5.862274l-0.99435425 0.9943695zm2.4914246 -2.4914398l-8.104767 -8.092377l0.99435425 -0.9943695l8.104797 8.092377l-0.99438477 0.9943695zm4.6555176 -8.434113l1.1491394 -0.90608215q0.66360474 1.1483612 0.4982605 2.308075q-0.15429688 1.1486664 -1.1707458 2.1651306q-1.2926941 1.2926788 -2.840088 1.2490997q-1.5474243 -0.0435791 -2.973755 -1.4677582q-1.4816589 -1.4793701 -1.5375061 -3.0586853q-0.055877686 -1.5793152 1.1594543 -2.7946625q1.1711426 -1.1711426 2.718567 -1.1054688q1.5473938 0.04359436 2.9958801 1.4898376q0.08843994 0.08831787 0.26535034 0.26496887l-4.3752136 4.3752136q1.0282593 0.9162903 2.0340576 0.94903564q1.0058289 0.010665894 1.7350159 -0.7185364q0.5524292 -0.5524292 0.65164185 -1.226181q0.099243164 -0.6737366 -0.3100586 -1.5239868zm-4.8736267 1.6474609l3.2703552 -3.2703705q-0.8070984 -0.6733856 -1.4813538 -0.7283478q-1.0500488 -0.09899902 -1.8013306 0.652298q-0.6850281 0.6850128 -0.6957092 1.6237793q-0.01071167 0.916687 0.70803833 1.722641zm12.846619 -5.8418274l-0.7408447 -0.73968506q0.32107544 1.4245911 -0.7616577 2.5073395q-0.7071228 0.70710754 -1.6796875 0.9062805q-0.9725647 0.19917297 -2.0006104 -0.16490173q-1.0169983 -0.3751068 -1.9126282 -1.2693634q-0.884552 -0.8832092 -1.3049316 -1.8770294q-0.42041016 -1.0159149 -0.2107544 -1.9768524q0.19857788 -0.97198486 0.9277649 -1.7011871q0.5303345 -0.5303192 1.1602783 -0.71832275q0.6409912 -0.19903564 1.2599792 -0.08883667l-2.9079895 -2.903534l0.99435425 -0.9943695l8.104797 8.092377l-0.92807007 0.9280853zm-6.0679016 0.2121582q1.1278076 1.1260834 2.166809 1.2140503q1.0279236 0.0769043 1.6687622 -0.5639038q0.65185547 -0.6518707 0.5740967 -1.6347809q-0.07775879 -1.0050049 -1.1723938 -2.0979767q-1.2052002 -1.2033539 -2.2331543 -1.3023682q-1.0279541 -0.09899902 -1.7129517 0.58599854q-0.66290283 0.6629181 -0.56307983 1.6458282q0.099853516 0.98291016 1.2719116 2.1531525zm11.702637 -5.846924l-5.8712463 -5.8622894l0.8838806 -0.8838806l0.8182068 0.8169708q-0.15499878 -0.70677185 0.043670654 -1.4136963q0.19866943 -0.72898865 0.7842407 -1.3145599q0.65185547 -0.6518707 1.3481445 -0.79571533q0.6852112 -0.15487671 1.3374329 0.16516113q-0.33224487 -1.7227936 0.7836609 -2.8386993q0.87283325 -0.87283325 1.8233948 -0.85110474q0.950531 -3.6621094E-4 1.9567261 1.0042877l4.035797 4.0296326l-0.9833069 0.9833069l-3.7041016 -3.6984253q-0.5970764 -0.5961609 -0.9508362 -0.75064087q-0.36480713 -0.16552734 -0.77371216 -0.065979004q-0.4199829 0.088516235 -0.7624817 0.43103027q-0.6187134 0.6187134 -0.6184082 1.4359894q3.0517578E-4 0.817276 0.9069824 1.7225647l3.416626 3.4113922l-0.99438477 0.9943695l-3.8146362 -3.808838q-0.66342163 -0.6623993 -1.2382202 -0.75053406q-0.57476807 -0.088134766 -1.1271973 0.46429443q-0.41983032 0.41984558 -0.5522461 0.99420166q-0.13241577 0.5743561 0.13305664 1.170639q0.26550293 0.5742035 1.061615 1.3690948l3.0517273 3.047058l-0.99438477 0.9943695zm6.107605 -11.985413q-1.6253662 -1.6228943 -1.5044556 -3.312729q0.10998535 -1.4137115 1.192749 -2.49646q1.215332 -1.2153473 2.7738037 -1.1828156q1.5584412 0.0104522705 2.962677 1.4125519q1.1278076 1.1260834 1.4376831 2.1199493q0.30984497 0.99386597 0.022857666 2.0100555q-0.2869873 0.99409485 -1.0603943 1.7675018q-1.2263794 1.2263794 -2.7737732 1.204895q-1.5584412 -0.032546997 -3.0511475 -1.5229492zm1.0275269 -1.0275269q1.1278076 1.1260986 2.1778564 1.2030029q1.0610657 0.06585693 1.8013306 -0.6743927q0.7402649 -0.74024963 0.6624756 -1.7894287q-0.066711426 -1.0602264 -1.2276917 -2.2194366q-1.0835876 -1.0819244 -2.1446838 -1.1477966q-1.0500488 -0.0769043 -1.7903137 0.66334534q-0.7402344 0.74024963 -0.67352295 1.8004913q0.066711426 1.0381317 1.1945496 2.164215zm12.382141 -6.504318l-0.7408447 -0.73968506q0.32107544 1.4246063 -0.7616577 2.5073547q-0.7071228 0.70710754 -1.6796875 0.9062805q-0.9725647 0.19917297 -2.0006104 -0.16490173q-1.0169983 -0.37512207 -1.9126282 -1.2693634q-0.884552 -0.8832092 -1.3049316 -1.8770294q-0.42041016 -1.0159149 -0.2107544 -1.9768524q0.19857788 -0.97198486 0.9277649 -1.7011871q0.5303345 -0.5303192 1.1602783 -0.71832275q0.6409912 -0.19903564 1.2599792 -0.08883667l-2.9079895 -2.903534l0.99435425 -0.9943695l8.104797 8.092377l-0.92807007 0.92807007zm-6.0679016 0.21217346q1.1278076 1.1260834 2.166809 1.2140503q1.0279236 0.0769043 1.6687622 -0.5639038q0.65185547 -0.6518707 0.5740967 -1.6347809q-0.07775879 -1.0050049 -1.1723938 -2.0979767q-1.2052002 -1.2033691 -2.2331543 -1.3023682q-1.0279541 -0.09899902 -1.7129517 0.58599854q-0.66290283 0.6629181 -0.5630493 1.6458282q0.099823 0.9828949 1.2718811 2.1531525zm10.679199 -8.602081l1.1491394 -0.90608215q0.66360474 1.1483612 0.4982605 2.308075q-0.15429688 1.1486664 -1.1707458 2.1651306q-1.2926941 1.2926788 -2.840088 1.2490997q-1.5474243 -0.04359436 -2.973755 -1.4677582q-1.4816589 -1.4793701 -1.5375061 -3.0586853q-0.055877686 -1.5793152 1.1594543 -2.7946625q1.1711426 -1.1711426 2.718567 -1.1054688q1.5473938 0.0435791 2.9958801 1.4898376q0.08843994 0.08831787 0.26535034 0.2649536l-4.3752136 4.375229q1.0282593 0.9162903 2.0340881 0.94903564q1.0057983 0.010650635 1.7349854 -0.71855164q0.5524292 -0.55241394 0.65164185 -1.2261658q0.099243164 -0.6737366 -0.3100586 -1.5239868zm-4.8736267 1.6474609l3.2703552 -3.2703705q-0.8070984 -0.6733856 -1.4813538 -0.72836304q-1.0500488 -0.098983765 -1.8013306 0.65231323q-0.6850281 0.6850128 -0.6957092 1.6237793q-0.01071167 0.916687 0.70803833 1.722641zm9.023804 -2.019043l-8.104767 -8.092377l0.99435425 -0.9943695l8.104797 8.092377l-0.99438477 0.9943695z" fill-rule="nonzero"/><path fill="#000000" d="m430.94907 207.43726l1.1159973 -0.8508301q0.8404541 1.1703644 0.75250244 2.407364q-0.07687378 1.2259521 -1.0381165 2.1871796q-1.2042847 1.2042847 -2.7295837 1.1606903q-1.5252991 -0.06567383 -2.9958801 -1.5340118q-0.9508972 -0.94944763 -1.3492126 -1.9653778q-0.3982849 -1.0380096 -0.11129761 -2.0321045q0.29803467 -1.0051422 1.0493469 -1.7564545q0.96121216 -0.96121216 2.0553894 -1.0831299q1.0831299 -0.13293457 2.1444702 0.59558105l-0.81747437 1.1047363q-0.7296448 -0.44148254 -1.3817444 -0.38601685q-0.64105225 0.044418335 -1.1382446 0.5416107q-0.75128174 0.751297 -0.6845703 1.7673492q0.06668091 0.9939575 1.238739 2.164215q1.183075 1.1812897 2.177887 1.2692566q0.9837036 0.076934814 1.7129211 -0.65226746q0.5855713 -0.5855713 0.6184387 -1.3255615q0.03286743 -0.7620697 -0.6195679 -1.6122284zm0.67337036 -2.2422485q-1.6253967 -1.6228943 -1.5044556 -3.3127136q0.10998535 -1.4137268 1.192749 -2.4964752q1.215332 -1.2153473 2.7737732 -1.1828003q1.5584717 0.010437012 2.9627075 1.4125366q1.1278076 1.1260834 1.4376526 2.1199493q0.3098755 0.9938812 0.022888184 2.0100555q-0.2869873 0.9941101 -1.0603943 1.7675018q-1.2263794 1.2263947 -2.7737732 1.204895q-1.5584717 -0.032546997 -3.0511475 -1.5229492zm1.0274963 -1.0275116q1.1278076 1.1260834 2.1778564 1.2029877q1.0610962 0.06585693 1.8013611 -0.6743927q0.7402344 -0.74024963 0.6624756 -1.7894287q-0.066711426 -1.0602264 -1.2277222 -2.2194366q-1.0835876 -1.0819244 -2.1446533 -1.1477814q-1.0500488 -0.076919556 -1.7903137 0.6633301q-0.7402344 0.7402649 -0.67352295 1.8004913q0.066711426 1.0381317 1.194519 2.1642303zm8.581451 -2.7036285l-5.871277 -5.862274l0.894928 -0.89494324l0.82928467 0.8280182q-0.32113647 -1.6013031 0.9052429 -2.8276978q0.5303345 -0.5303345 1.1602478 -0.7845917q0.62991333 -0.2542572 1.1604614 -0.16610718q0.5305786 0.088150024 1.0502014 0.43032837q0.33166504 0.22076416 1.0171814 0.9052429l3.6156616 3.6101074l-0.99438477 0.9943695l-3.5714111 -3.5659485q-0.6081238 -0.60720825 -1.0281982 -0.78375244q-0.42007446 -0.19863892 -0.8952942 -0.07696533q-0.46420288 0.11061096 -0.8619385 0.5083618q-0.6408081 0.64082336 -0.69573975 1.5133362q-0.05493164 0.85043335 1.072876 1.976532l3.2065125 3.2016144l-0.99435425 0.9943695zm6.52417 -6.5241547l-5.09729 -5.0894775l-0.87283325 0.87283325l-0.7739868 -0.7728119l0.87283325 -0.87283325l-0.630249 -0.6292877q-0.58602905 -0.5851288 -0.7630005 -0.98265076q-0.24337769 -0.5300293 -0.13308716 -1.1264648q0.12136841 -0.6074829 0.7732239 -1.2593536q0.41983032 -0.41984558 1.0275879 -0.8287201l0.7298584 1.0158081q-0.36462402 0.2541504 -0.6408386 0.530365q-0.45300293 0.45298767 -0.44180298 0.8395386q1.5258789E-4 0.37550354 0.5308838 0.905426l0.5418091 0.54096985l1.1380005 -1.1380005l0.7739868 0.7728119l-1.1380005 1.1380005l5.0972595 5.0894775l-0.99435425 0.9943695zm-4.0546265 -9.866547l-1.1388855 -1.1371307l0.99438477 -0.9943695l1.1388855 1.1371307l-0.99438477 0.9943695zm6.965912 6.955246l-5.871277 -5.862274l0.99438477 -0.9943695l5.871277 5.862274l-0.99438477 0.9943695zm2.8122253 -1.8399506l1.1160278 -0.8287506q0.50857544 0.3973999 0.98379517 0.3199005q0.6520996 -0.09963989 1.2929077 -0.74046326q0.68499756 -0.68499756 0.7842407 -1.3366547q0.09921265 -0.6516571 -0.2657776 -1.2810364q-0.2211914 -0.37542725 -1.2052612 -1.3579865q0.12213135 1.4246674 -0.8501587 2.3969421q-1.215332 1.215332 -2.7517395 1.006073q-1.5364075 -0.20924377 -2.763733 -1.4346924q-0.84033203 -0.8390503 -1.2496948 -1.8439331q-0.3982849 -1.0159149 -0.2107544 -1.9768524q0.19857788 -0.9719696 0.97198486 -1.7453613q1.0385437 -1.0385742 2.5528564 -0.8734894l-0.7076416 -0.7065582l0.9170227 -0.91703796l5.075165 5.067398q1.3710632 1.3689728 1.6697998 2.2192688q0.2987671 0.8503113 0.02279663 1.7891846q-0.27593994 0.93885803 -1.1598206 1.8227539q-1.0496216 1.0496063 -2.176941 1.2267456q-1.116272 0.16609192 -2.0450745 -0.80545044zm-2.6985474 -4.3504333q1.1499329 1.1481781 2.133667 1.2251129q0.9947815 0.06587219 1.679779 -0.61912537q0.68499756 -0.6850128 0.629364 -1.6679382q-0.06668091 -0.9939575 -1.194519 -2.1200562q-1.0835876 -1.0819244 -2.1004639 -1.1477966q-1.0279236 -0.076919556 -1.7018738 0.5970459q-0.66293335 0.66290283 -0.58517456 1.6679077q0.07775879 1.0050049 1.1392212 2.0648499zm12.536896 -6.46019l-0.86242676 -0.86112976q0.31011963 1.6786194 -0.8720703 2.8608093q-0.5192871 0.5192871 -1.1713257 0.7735443q-0.6409607 0.2432251 -1.1604614 0.16612244q-0.5305786 -0.08816528 -1.0501709 -0.43032837q-0.35379028 -0.24284363 -0.9840393 -0.87213135l-3.6377563 -3.632187l0.99438477 -0.9943695l3.2507324 3.2457886q0.7850647 0.783844 1.1056824 0.9935608q0.49746704 0.29800415 1.0169373 0.22050476q0.53048706 -0.08856201 0.9724426 -0.5305023q0.4529724 -0.45298767 0.6185303 -1.0605011q0.16555786 -0.62957764 -0.077819824 -1.1817017q-0.23233032 -0.5631714 -0.9841919 -1.3139038l-3.1401978 -3.135376l0.99438477 -0.9943695l5.8712463 5.862274l-0.8838806 0.8838959zm2.4362183 -2.436203l-5.871277 -5.8622894l0.894928 -0.894928l0.8845825 0.8832092q-0.27670288 -0.9607544 -0.18847656 -1.4467468q0.088256836 -0.48597717 0.44180298 -0.8395386q0.49719238 -0.49717712 1.3371277 -0.69628906l0.57522583 1.2588196q-0.57470703 0.15484619 -0.93930054 0.51945496q-0.32040405 0.32040405 -0.38653564 0.7842865q-0.06616211 0.44180298 0.17718506 0.90556335q0.36502075 0.6956482 0.9952698 1.3249359l3.073822 3.0691528l-0.99435425 0.9943695zm6.871643 -8.330048q-0.07699585 1.0271454 -0.38619995 1.7341003q-0.32025146 0.69592285 -0.90582275 1.2814941q-0.97229004 0.9722748 -1.9670105 1.0168304q-0.994751 0.044555664 -1.7244873 -0.6840973q-0.4312439 -0.43055725 -0.58618164 -0.9827118q-0.16601562 -0.5632019 -0.06674194 -1.0823212q0.09927368 -0.541214 0.3864441 -1.0493622q0.22091675 -0.37557983 0.7401428 -1.0274048q1.0605469 -1.3478088 1.4360657 -2.121048q-0.21008301 -0.20976257 -0.26538086 -0.26496887q-0.6081238 -0.60720825 -1.127594 -0.5738678q-0.72946167 0.044448853 -1.4807739 0.7957611q-0.6960449 0.6960449 -0.7842407 1.2924805q-0.0881958 0.5743408 0.37631226 1.3472595l-1.1049805 0.839798q-0.48660278 -0.75083923 -0.57528687 -1.4355469q-0.07763672 -0.695755 0.29788208 -1.4690094q0.36444092 -0.7842865 1.1157227 -1.5355835q0.75131226 -0.751297 1.392273 -1.0386963q0.65197754 -0.29844666 1.1383362 -0.25445557q0.48632812 0.04399109 0.9838257 0.36408997q0.3095398 0.19866943 0.9729614 0.861084l1.3268433 1.3247986q1.3931885 1.3910522 1.813324 1.7001343q0.43115234 0.29803467 0.9617615 0.4524536l-1.0385742 1.038559q-0.46426392 -0.15444946 -0.9286194 -0.5297699zm-2.2998047 -2.1417236q-0.32025146 0.7621918 -1.2481995 1.9994965q-0.53027344 0.7070465 -0.6737976 1.0715637q-0.14355469 0.3645172 -0.06604004 0.7289429q0.07748413 0.3423462 0.3317871 0.5962677q0.3980713 0.39744568 0.96173096 0.36410522q0.57473755 -0.044403076 1.1492615 -0.618927q0.5745239 -0.5745239 0.7732239 -1.2593536q0.19866943 -0.7069092 -0.033691406 -1.358429q-0.1659851 -0.49693298 -0.82940674 -1.1593323l-0.36486816 -0.3643341zm6.768799 -2.6587372l1.0281982 0.739563q-0.33139038 0.5081787 -0.6628418 0.8396301q-0.54138184 0.54138184 -1.0055542 0.6740875q-0.47521973 0.121673584 -0.87316895 -0.032806396q-0.4090271 -0.16549683 -1.304657 -1.0597534l-3.3723755 -3.367218l-0.729187 0.7292023l-0.77401733 -0.7728119l0.7292175 -0.7292023l-1.4595337 -1.4572906l0.39730835 -1.5905304l2.0565796 2.0534515l0.99438477 -0.9943695l0.7739868 0.7728119l-0.99435425 0.9943695l3.4276428 3.4224243q0.4312439 0.43055725 0.5970459 0.5078125q0.17687988 0.06619263 0.37582397 0.021942139q0.18786621 -0.05529785 0.408844 -0.27626038q0.16571045 -0.16572571 0.3866577 -0.47505188zm-5.092499 -7.038803l-1.138855 -1.1371307l0.99435425 -0.9943695l1.1388855 1.1371307l-0.99438477 0.9943695zm6.965912 6.955246l-5.871277 -5.8622894l0.99438477 -0.9943695l5.871277 5.8622894l-0.99438477 0.9943695zm-0.8032532 -5.0745544q-1.6253967 -1.6228943 -1.5044556 -3.3127136q0.10998535 -1.4137115 1.192749 -2.4964752q1.215332 -1.2153473 2.7737732 -1.1828003q1.5584412 0.010437012 2.9627075 1.4125366q1.1278076 1.1260834 1.4376526 2.1199493q0.3098755 0.9938812 0.022888184 2.0100708q-0.2869873 0.99409485 -1.0603943 1.7674866q-1.2263794 1.2263947 -2.7737732 1.204895q-1.5584717 -0.03253174 -3.0511475 -1.5229492zm1.0274963 -1.0275116q1.1278076 1.1260834 2.1778564 1.2029877q1.0610962 0.06587219 1.8013611 -0.6743927q0.7402344 -0.74024963 0.6624756 -1.7894287q-0.06674194 -1.0602264 -1.2277222 -2.2194366q-1.0835876 -1.0819244 -2.1446838 -1.1477814q-1.0500183 -0.076919556 -1.7902832 0.66334534q-0.7402649 0.74024963 -0.67352295 1.8004761q0.066711426 1.038147 1.194519 2.1642303zm8.581451 -2.7036285l-5.871277 -5.862274l0.894928 -0.894928l0.82928467 0.8280029q-0.32113647 -1.6013031 0.9052429 -2.8276978q0.5303345 -0.5303345 1.1602478 -0.7845917q0.62991333 -0.2542572 1.1604614 -0.16610718q0.5305786 0.088150024 1.0502014 0.43032837q0.33166504 0.22076416 1.0171814 0.9052429l3.6156616 3.6101074l-0.99438477 0.9943695l-3.5714111 -3.5659485q-0.6081238 -0.60720825 -1.0281982 -0.78375244q-0.42007446 -0.19863892 -0.8953247 -0.07696533q-0.46417236 0.11062622 -0.86190796 0.5083618q-0.6408081 0.64082336 -0.69573975 1.5133514q-0.05493164 0.85043335 1.072876 1.9765167l3.2065125 3.2016144l-0.99435425 0.9943695z" fill-rule="nonzero"/><path fill="#000000" fill-opacity="0.0" d="m214.26378 115.49344l0 0c0 -6.5056534 5.27388 -11.779526 11.779526 -11.779526l0 0c3.1241302 0 6.1203003 1.2410507 8.3293915 3.450142c2.2090912 2.2090912 3.4501343 5.205261 3.4501343 8.329384l0 0c0 6.5056534 -5.2738647 11.779526 -11.779526 11.779526l0 0c-6.5056458 0 -11.779526 -5.2738724 -11.779526 -11.779526z" fill-rule="evenodd"/><path stroke="#000000" stroke-width="1.0" stroke-linejoin="round" stroke-linecap="butt" d="m214.26378 115.49344l0 0c0 -6.5056534 5.27388 -11.779526 11.779526 -11.779526l0 0c3.1241302 0 6.1203003 1.2410507 8.3293915 3.450142c2.2090912 2.2090912 3.4501343 5.205261 3.4501343 8.329384l0 0c0 6.5056534 -5.2738647 11.779526 -11.779526 11.779526l0 0c-6.5056458 0 -11.779526 -5.2738724 -11.779526 -11.779526z" fill-rule="evenodd"/><path fill="#000000" fill-opacity="0.0" d="m210.90945 94.61806l30.267715 0l0 42.015747l-30.267715 0z" fill-rule="evenodd"/><path fill="#000000" d="m224.20633 118.256805q0 -0.328125 0 -0.5q0 -0.96875 0.265625 -1.671875q0.203125 -0.515625 0.640625 -1.0625q0.328125 -0.390625 1.171875 -1.140625q0.859375 -0.75 1.109375 -1.1875q0.265625 -0.453125 0.265625 -0.984375q0 -0.953125 -0.75 -1.671875q-0.734375 -0.734375 -1.828125 -0.734375q-1.046875 0 -1.75 0.65625q-0.703125 0.65625 -0.921875 2.046875l-1.6875 -0.203125q0.234375 -1.859375 1.359375 -2.84375q1.125 -1.0 2.96875 -1.0q1.96875 0 3.125 1.0625q1.171875 1.0625 1.171875 2.578125q0 0.875 -0.40625 1.609375q-0.40625 0.734375 -1.609375 1.796875q-0.796875 0.703125 -1.046875 1.046875q-0.25 0.34375 -0.375 0.78125q-0.109375 0.4375 -0.125 1.421875l-1.578125 0zm-0.09375 3.28125l0 -1.875l1.859375 0l0 1.875l-1.859375 0z" fill-rule="nonzero"/><path fill="#000000" fill-opacity="0.0" d="m261.9521 114.82415l0 0c0 -6.5056534 5.2738953 -11.779533 11.779541 -11.779533l0 0c3.124115 0 6.1203003 1.2410583 8.329376 3.4501495c2.2091064 2.2090836 3.4501648 5.2052536 3.4501648 8.329384l0 0c0 6.5056534 -5.2738953 11.779526 -11.779541 11.779526l0 0c-6.5056458 0 -11.779541 -5.2738724 -11.779541 -11.779526z" fill-rule="evenodd"/><path stroke="#000000" stroke-width="1.0" stroke-linejoin="round" stroke-linecap="butt" d="m261.9521 114.82415l0 0c0 -6.5056534 5.2738953 -11.779533 11.779541 -11.779533l0 0c3.124115 0 6.1203003 1.2410583 8.329376 3.4501495c2.2091064 2.2090836 3.4501648 5.2052536 3.4501648 8.329384l0 0c0 6.5056534 -5.2738953 11.779526 -11.779541 11.779526l0 0c-6.5056458 0 -11.779541 -5.2738724 -11.779541 -11.779526z" fill-rule="evenodd"/><path fill="#000000" fill-opacity="0.0" d="m258.59778 93.94877l30.2677 0l0 42.01574l-30.2677 0z" fill-rule="evenodd"/><path fill="#000000" d="m271.89465 117.58752q0 -0.328125 0 -0.5q0 -0.96875 0.265625 -1.671875q0.203125 -0.515625 0.640625 -1.0625q0.328125 -0.390625 1.171875 -1.140625q0.859375 -0.75 1.109375 -1.1875q0.265625 -0.453125 0.265625 -0.984375q0 -0.953125 -0.75 -1.671875q-0.734375 -0.734375 -1.828125 -0.734375q-1.046875 0 -1.75 0.65625q-0.703125 0.65625 -0.921875 2.046875l-1.6875 -0.203125q0.234375 -1.859375 1.359375 -2.84375q1.125 -1.0 2.96875 -1.0q1.96875 0 3.125 1.0625q1.171875 1.0625 1.171875 2.578125q0 0.875 -0.40625 1.609375q-0.40625 0.734375 -1.609375 1.796875q-0.796875 0.703125 -1.046875 1.046875q-0.25 0.34375 -0.375 0.78125q-0.109375 0.4375 -0.125 1.421875l-1.578125 0zm-0.09375 3.28125l0 -1.875l1.859375 0l0 1.875l-1.859375 0z" fill-rule="nonzero"/><path fill="#000000" fill-opacity="0.0" d="m421.32874 114.69292l0 0c0 -6.5056534 5.2738647 -11.779533 11.779541 -11.779533l0 0c3.124115 0 6.1203003 1.2410583 8.329376 3.4501495c2.209076 2.2090836 3.4501343 5.2052536 3.4501343 8.329384l0 0c0 6.5056534 -5.2738647 11.779526 -11.7795105 11.779526l0 0c-6.5056763 0 -11.779541 -5.2738724 -11.779541 -11.779526z" fill-rule="evenodd"/><path stroke="#000000" stroke-width="1.0" stroke-linejoin="round" stroke-linecap="butt" d="m421.32874 114.69292l0 0c0 -6.5056534 5.2738647 -11.779533 11.779541 -11.779533l0 0c3.124115 0 6.1203003 1.2410583 8.329376 3.4501495c2.209076 2.2090836 3.4501343 5.2052536 3.4501343 8.329384l0 0c0 6.5056534 -5.2738647 11.779526 -11.7795105 11.779526l0 0c-6.5056763 0 -11.779541 -5.2738724 -11.779541 -11.779526z" fill-rule="evenodd"/><path fill="#000000" fill-opacity="0.0" d="m417.9744 93.817535l30.26773 0l0 42.015747l-30.26773 0z" fill-rule="evenodd"/><path fill="#000000" d="m431.27127 117.45628q0 -0.328125 0 -0.5q0 -0.96875 0.265625 -1.671875q0.203125 -0.515625 0.640625 -1.0625q0.328125 -0.390625 1.171875 -1.140625q0.859375 -0.75 1.109375 -1.1875q0.265625 -0.453125 0.265625 -0.984375q0 -0.953125 -0.75 -1.671875q-0.734375 -0.734375 -1.828125 -0.734375q-1.046875 0 -1.75 0.65625q-0.703125 0.65625 -0.921875 2.046875l-1.6875 -0.203125q0.234375 -1.859375 1.359375 -2.84375q1.125 -1.0 2.96875 -1.0q1.96875 0 3.125 1.0625q1.171875 1.0625 1.171875 2.578125q0 0.875 -0.40625 1.609375q-0.40625 0.734375 -1.609375 1.796875q-0.796875 0.703125 -1.046875 1.046875q-0.25 0.34375 -0.375 0.78125q-0.109375 0.4375 -0.125 1.421875l-1.578125 0zm-0.09375 3.28125l0 -1.875l1.859375 0l0 1.875l-1.859375 0z" fill-rule="nonzero"/><path fill="#000000" fill-opacity="0.0" d="m309.6404 115.49344l0 0c0 -6.5056534 5.2738953 -11.779526 11.779541 -11.779526l0 0c3.124115 0 6.1203003 1.2410507 8.329376 3.450142c2.2091064 2.2090912 3.4501343 5.205261 3.4501343 8.329384l0 0c0 6.5056534 -5.2738647 11.779526 -11.7795105 11.779526l0 0c-6.5056458 0 -11.779541 -5.2738724 -11.779541 -11.779526z" fill-rule="evenodd"/><path stroke="#000000" stroke-width="1.0" stroke-linejoin="round" stroke-linecap="butt" d="m309.6404 115.49344l0 0c0 -6.5056534 5.2738953 -11.779526 11.779541 -11.779526l0 0c3.124115 0 6.1203003 1.2410507 8.329376 3.450142c2.2091064 2.2090912 3.4501343 5.205261 3.4501343 8.329384l0 0c0 6.5056534 -5.2738647 11.779526 -11.7795105 11.779526l0 0c-6.5056458 0 -11.779541 -5.2738724 -11.779541 -11.779526z" fill-rule="evenodd"/><path fill="#000000" fill-opacity="0.0" d="m306.2861 94.61806l30.2677 0l0 42.015747l-30.2677 0z" fill-rule="evenodd"/><path fill="#000000" d="m319.58298 118.256805q0 -0.328125 0 -0.5q0 -0.96875 0.265625 -1.671875q0.203125 -0.515625 0.640625 -1.0625q0.328125 -0.390625 1.171875 -1.140625q0.859375 -0.75 1.109375 -1.1875q0.265625 -0.453125 0.265625 -0.984375q0 -0.953125 -0.75 -1.671875q-0.734375 -0.734375 -1.828125 -0.734375q-1.046875 0 -1.75 0.65625q-0.703125 0.65625 -0.921875 2.046875l-1.6875 -0.203125q0.234375 -1.859375 1.359375 -2.84375q1.125 -1.0 2.96875 -1.0q1.96875 0 3.125 1.0625q1.171875 1.0625 1.171875 2.578125q0 0.875 -0.40625 1.609375q-0.40625 0.734375 -1.609375 1.796875q-0.796875 0.703125 -1.046875 1.046875q-0.25 0.34375 -0.375 0.78125q-0.109375 0.4375 -0.125 1.421875l-1.578125 0zm-0.09375 3.28125l0 -1.875l1.859375 0l0 1.875l-1.859375 0z" fill-rule="nonzero"/><path fill="#000000" fill-opacity="0.0" d="m148.04002 115.52882l15.181107 -0.44094086" fill-rule="evenodd"/><path stroke="#000000" stroke-width="1.0" stroke-linejoin="round" stroke-linecap="butt" d="m148.04002 115.528824l9.18364 -0.26674652" fill-rule="evenodd"/><path fill="#000000" stroke="#000000" stroke-width="1.0" stroke-linecap="butt" d="m157.2716 116.91311l4.4882355 -1.7827911l-4.584137 -1.5192795z" fill-rule="evenodd"/><path fill="#000000" fill-opacity="0.0" d="m193.48885 115.087875l17.417328 0.5354309" fill-rule="evenodd"/><path stroke="#000000" stroke-width="1.0" stroke-linejoin="round" stroke-linecap="butt" d="m193.48885 115.087875l11.420151 0.3510666" fill-rule="evenodd"/><path fill="#000000" stroke="#000000" stroke-width="1.0" stroke-linecap="butt" d="m204.85825 117.0899l4.5867157 -1.5115051l-4.485214 -1.7903976z" fill-rule="evenodd"/><path fill="#000000" fill-opacity="0.0" d="m241.17717 115.62593l17.417313 -0.6614151" fill-rule="evenodd"/><path stroke="#000000" stroke-width="1.0" stroke-linejoin="round" stroke-linecap="butt" d="m241.17717 115.62593l11.421646 -0.4337387" fill-rule="evenodd"/><path fill="#000000" stroke="#000000" stroke-width="1.0" stroke-linecap="butt" d="m252.66148 116.84274l4.4721527 -1.8227539l-4.5975037 -1.4783325z" fill-rule="evenodd"/><path fill="#000000" fill-opacity="0.0" d="m288.86548 114.95664l17.417328 0.6614151" fill-rule="evenodd"/><path stroke="#000000" stroke-width="1.0" stroke-linejoin="round" stroke-linecap="butt" d="m288.86548 114.95664l11.421661 0.4337387" fill-rule="evenodd"/><path fill="#000000" stroke="#000000" stroke-width="1.0" stroke-linecap="butt" d="m300.22446 117.04092l4.5975037 -1.4783325l-4.4721375 -1.8227539z" fill-rule="evenodd"/><path fill="#000000" fill-opacity="0.0" d="m448.24213 114.82541l18.299225 0" fill-rule="evenodd"/><path stroke="#000000" stroke-width="1.0" stroke-linejoin="round" stroke-linecap="butt" d="m448.24213 114.82541l12.299225 0" fill-rule="evenodd"/><path fill="#000000" stroke="#000000" stroke-width="1.0" stroke-linecap="butt" d="m460.54135 116.47714l4.538086 -1.6517334l-4.538086 -1.6517334z" fill-rule="evenodd"/><path fill="#000000" fill-opacity="0.0" d="m336.5538 115.62593l81.41733 -0.7873993" fill-rule="evenodd"/><path stroke="#000000" stroke-width="1.0" stroke-linejoin="round" stroke-linecap="butt" stroke-dasharray="1.0,3.0" d="m336.5538 115.62593l81.41733 -0.7873993" fill-rule="evenodd"/><path fill="#000000" fill-opacity="0.0" d="m163.22047 126.86614l0 19.055122" fill-rule="evenodd"/><path stroke="#000000" stroke-width="1.0" stroke-linejoin="round" stroke-linecap="butt" d="m163.22047 126.86614l0 19.055122" fill-rule="evenodd"/><path fill="#000000" fill-opacity="0.0" d="m448.93176 126.86614l0 19.055122" fill-rule="evenodd"/><path stroke="#000000" stroke-width="1.0" stroke-linejoin="round" stroke-linecap="butt" d="m448.93176 126.86614l0 19.055122" fill-rule="evenodd"/><path fill="#000000" fill-opacity="0.0" d="m163.2 146.35432l284.8504 -0.56692505" fill-rule="evenodd"/><path stroke="#000000" stroke-width="1.0" stroke-linejoin="round" stroke-linecap="butt" d="m163.2 146.35432l284.8504 -0.56692505" fill-rule="evenodd"/><path fill="#000000" fill-opacity="0.0" d="m204.29921 226.33308l97.70079 -97.70079l41.165344 41.10237l-97.700775 97.70079z" fill-rule="evenodd"/><path fill="#000000" d="m251.0467 214.03584l-8.104797 -8.092377l1.0717163 -1.0717163l8.104782 8.092377l-1.071701 1.0717163zm2.8339386 -2.8339539l-5.8712616 -5.8622894l0.894928 -0.894928l0.82928467 0.8280029q-0.32115173 -1.6013031 0.9052429 -2.8276825q0.5303192 -0.5303345 1.1602325 -0.7845917q0.62991333 -0.2542572 1.1604767 -0.16610718q0.5305786 0.088150024 1.0501862 0.43032837q0.33166504 0.2207489 1.0171967 0.9052429l3.6156464 3.6101074l-0.99438477 0.9943695l-3.5713959 -3.5659485q-0.60813904 -0.60720825 -1.0282135 -0.78375244q-0.42007446 -0.19863892 -0.89530945 -0.07696533q-0.46417236 0.11061096 -0.8619232 0.5083618q-0.6408081 0.6408081 -0.69573975 1.5133362q-0.05493164 0.85043335 1.072876 1.9765167l3.2065277 3.2016296l-0.9943695 0.9943695zm7.562042 -9.351913l1.0281982 0.73957825q-0.33139038 0.50816345 -0.6628418 0.8396301q-0.54138184 0.54138184 -1.0055542 0.6740875q-0.47521973 0.121658325 -0.87316895 -0.032806396q-0.4090271 -0.16549683 -1.3046265 -1.0597534l-3.372406 -3.367218l-0.7292023 0.7292023l-0.7739868 -0.7728119l0.7292023 -0.7292023l-1.4595184 -1.4572906l0.3972931 -1.5905304l2.0565948 2.0534515l0.9943695 -0.9943695l0.7739868 0.7728119l-0.99435425 0.9943695l3.4276733 3.4224243q0.43121338 0.43055725 0.5970459 0.5078125q0.17684937 0.06619263 0.37579346 0.021942139q0.18786621 -0.05529785 0.408844 -0.27626038q0.16574097 -0.16574097 0.3866577 -0.47506714zm3.9932861 -5.982025l1.1491394 -0.9060669q0.66360474 1.1483612 0.4982605 2.308075q-0.15429688 1.1486664 -1.1707458 2.1651306q-1.2926941 1.2926788 -2.840088 1.2490997q-1.5474243 -0.04359436 -2.973755 -1.4677582q-1.4816589 -1.4793701 -1.5375061 -3.0586853q-0.055877686 -1.5793152 1.1594543 -2.7946625q1.1711426 -1.1711426 2.718567 -1.1054688q1.5473938 0.0435791 2.9958801 1.4898376q0.08843994 0.08831787 0.26535034 0.2649536l-4.3752136 4.375229q1.0282593 0.9162903 2.0340576 0.94903564q1.0058289 0.010650635 1.7350159 -0.71855164q0.5524292 -0.5524292 0.65164185 -1.2261658q0.09921265 -0.6737366 -0.3100586 -1.5240021zm-4.8736267 1.6474762l3.2703552 -3.2703705q-0.8070984 -0.6734009 -1.4813538 -0.72836304q-1.0500488 -0.098983765 -1.8013306 0.65231323q-0.6850281 0.6850128 -0.6957092 1.6237793q-0.01071167 0.916687 0.70803833 1.722641zm9.034851 -2.0300903l-5.871277 -5.8622894l0.8949585 -0.894928l0.884552 0.8832092q-0.27670288 -0.9607544 -0.18844604 -1.4467316q0.08822632 -0.48599243 0.44177246 -0.8395386q0.49719238 -0.49719238 1.3371277 -0.6963043l0.57522583 1.2588348q-0.5746765 0.15483093 -0.93930054 0.5194397q-0.32040405 0.32040405 -0.38653564 0.7842865q-0.06613159 0.44180298 0.17718506 0.9055786q0.36502075 0.6956482 0.9952698 1.3249359l3.0738525 3.0691376l-0.99438477 0.9943695zm3.778595 -3.778595l-5.8712463 -5.8622894l0.8838806 -0.8838806l0.8182068 0.81695557q-0.15499878 -0.70677185 0.043670654 -1.413681q0.19866943 -0.7290039 0.7842407 -1.3145752q0.651886 -0.6518707 1.3481445 -0.7957001q0.6852112 -0.15489197 1.3374329 0.16514587q-0.33224487 -1.7227936 0.7836609 -2.838684q0.87283325 -0.87283325 1.8233948 -0.85112q0.950531 -3.6621094E-4 1.9567261 1.0042877l4.035797 4.0296326l-0.9833069 0.98332214l-3.7041016 -3.6984253q-0.5970764 -0.59617615 -0.9508362 -0.7506561q-0.36480713 -0.16552734 -0.77371216 -0.065963745q-0.4199829 0.088516235 -0.7624817 0.431015q-0.6187134 0.6187134 -0.6184082 1.4360046q3.3569336E-4 0.817276 0.9069824 1.7225647l3.416626 3.411377l-0.99435425 0.9943695l-3.8146667 -3.8088226q-0.66342163 -0.66241455 -1.2382202 -0.7505493q-0.57476807 -0.088134766 -1.1271973 0.46429443q-0.41983032 0.41984558 -0.5522461 0.99420166q-0.13241577 0.5743561 0.13308716 1.1706543q0.2654724 0.5742035 1.0615845 1.3690796l3.0517273 3.0470734l-0.99438477 0.9943695zm11.544281 -15.322891l1.1491699 -0.9060669q0.66360474 1.148346 0.49822998 2.3080597q-0.15429688 1.1486664 -1.1707458 2.1651459q-1.2926941 1.2926788 -2.840088 1.2490845q-1.5473938 -0.0435791 -2.973755 -1.4677582q-1.4816589 -1.4793701 -1.5375061 -3.0586853q-0.055877686 -1.5793152 1.1594543 -2.7946472q1.1711426 -1.1711426 2.718567 -1.1054688q1.5473938 0.0435791 2.9958801 1.4898224q0.08843994 0.08833313 0.26535034 0.26496887l-4.3752136 4.375229q1.0282593 0.916275 2.0340881 0.9490204q1.0057983 0.010665894 1.7349854 -0.7185364q0.5524292 -0.5524292 0.65167236 -1.2261658q0.09921265 -0.67375183 -0.3100891 -1.5240021zm-4.8736267 1.6474762l3.2703552 -3.2703705q-0.8070984 -0.6734009 -1.4813538 -0.72836304q-1.0500488 -0.09899902 -1.8013306 0.652298q-0.6850281 0.6850128 -0.6957092 1.6237793q-0.01071167 0.916687 0.70803833 1.7226562zm12.846619 -5.8418427l-0.7408142 -0.73968506q0.32107544 1.4245911 -0.76168823 2.5073547q-0.7071228 0.70710754 -1.6796875 0.90626526q-0.9725647 0.19917297 -2.0006104 -0.16488647q-1.0169983 -0.37512207 -1.9126282 -1.2693634q-0.884552 -0.8832092 -1.3049316 -1.8770447q-0.42041016 -1.0159149 -0.2107544 -1.9768524q0.19857788 -0.9719696 0.9277649 -1.7011719q0.5303345 -0.5303345 1.1602783 -0.71832275q0.6409912 -0.1990509 1.2599792 -0.08883667l-2.9079895 -2.9035492l0.99435425 -0.9943695l8.104797 8.092377l-0.92807007 0.9280853zm-6.0679016 0.2121582q1.1278076 1.1260986 2.166809 1.2140503q1.0279541 0.076919556 1.6687622 -0.5639038q0.65185547 -0.65185547 0.5740967 -1.6347656q-0.07772827 -1.0050049 -1.1723938 -2.0979767q-1.2052002 -1.2033691 -2.2331543 -1.3023834q-1.0279541 -0.09899902 -1.7129517 0.5860138q-0.66290283 0.66290283 -0.5630493 1.645813q0.099853516 0.98291016 1.2718811 2.1531525zm1.5934143 -9.658859l-1.138855 -1.1371307l0.99435425 -0.9943695l1.1388855 1.1371307l-0.99438477 0.9943695zm6.965912 6.955246l-5.8712463 -5.862274l0.99435425 -0.9943695l5.871277 5.8622894l-0.99438477 0.99435425zm5.606598 -7.064972q-0.07699585 1.0271454 -0.38619995 1.7341003q-0.32025146 0.6959076 -0.90582275 1.2814789q-0.97229004 0.9722748 -1.9670105 1.0168304q-0.99472046 0.044570923 -1.7244873 -0.68408203q-0.43121338 -0.43055725 -0.58618164 -0.9827118q-0.16601562 -0.5632019 -0.06674194 -1.0823212q0.09927368 -0.541214 0.3864441 -1.0493622q0.22091675 -0.3755951 0.7401428 -1.0274048q1.0605774 -1.3478088 1.4360657 -2.1210632q-0.21008301 -0.20974731 -0.26538086 -0.2649536q-0.6081238 -0.60720825 -1.127594 -0.5738678q-0.72946167 0.044448853 -1.4807739 0.79574585q-0.6960449 0.6960602 -0.7842407 1.2924957q-0.0881958 0.57432556 0.37631226 1.3472595l-1.10495 0.8397827q-0.4866333 -0.750824 -0.5753174 -1.4355316q-0.07763672 -0.69577026 0.29788208 -1.4690094q0.36444092 -0.7842865 1.1157227 -1.5355835q0.75131226 -0.75131226 1.392273 -1.0387115q0.65197754 -0.2984314 1.1383362 -0.2544403q0.48632812 0.04399109 0.9838257 0.3640747q0.3095703 0.19868469 0.97299194 0.861084l1.3268127 1.3248138q1.3931885 1.3910522 1.813324 1.7001343q0.43118286 0.29803467 0.9617615 0.45243835l-1.0385742 1.0385742q-0.46426392 -0.15444946 -0.9286194 -0.5297699zm-2.2998047 -2.1417236q-0.32025146 0.7621765 -1.2481995 1.9994965q-0.53027344 0.7070465 -0.6737976 1.0715637q-0.14355469 0.3645172 -0.06604004 0.7289429q0.07748413 0.3423462 0.33181763 0.5962677q0.39804077 0.39744568 0.96173096 0.36408997q0.57470703 -0.044387817 1.149231 -0.61891174q0.5745239 -0.5745239 0.7732239 -1.2593536q0.19866943 -0.7069092 -0.033691406 -1.358429q-0.1659851 -0.49693298 -0.82940674 -1.1593475l-0.36486816 -0.36431885zm6.768799 -2.6587524l1.0281982 0.73957825q-0.33139038 0.50816345 -0.6628418 0.8396301q-0.54138184 0.5413666 -1.0055542 0.6740875q-0.47521973 0.121658325 -0.87316895 -0.032806396q-0.4090271 -0.16551208 -1.3046265 -1.0597534l-3.372406 -3.367218l-0.729187 0.7292023l-0.7739868 -0.7728119l0.729187 -0.7292023l-1.4595337 -1.4572906l0.39730835 -1.5905304l2.05661 2.0534515l0.99435425 -0.9943695l0.7739868 0.7728119l-0.99435425 0.9943695l3.4276733 3.4224243q0.43121338 0.43055725 0.5970459 0.5078125q0.17684937 0.06619263 0.37579346 0.021942139q0.18786621 -0.05529785 0.408844 -0.27627563q0.16574097 -0.16572571 0.3866577 -0.47505188zm3.9932861 -5.982025l1.1491394 -0.9060669q0.66360474 1.1483612 0.4982605 2.308075q-0.15429688 1.1486664 -1.1707458 2.1651306q-1.2926941 1.2926788 -2.840088 1.2490997q-1.5474243 -0.04359436 -2.973755 -1.4677582q-1.4816589 -1.4793701 -1.5375061 -3.0586853q-0.055877686 -1.5793152 1.1594543 -2.7946625q1.1711426 -1.1711426 2.718567 -1.1054688q1.5473938 0.04359436 2.9958801 1.4898376q0.08843994 0.08831787 0.26535034 0.26496887l-4.3752136 4.3752136q1.0282593 0.9162903 2.0340881 0.94903564q1.0057983 0.010650635 1.7349854 -0.71855164q0.5524292 -0.5524292 0.65164185 -1.2261658q0.099243164 -0.6737366 -0.3100586 -1.5240021zm-4.8736267 1.6474762l3.2703552 -3.2703705q-0.8070984 -0.6734009 -1.4813538 -0.72836304q-1.0500488 -0.09899902 -1.8013306 0.65231323q-0.6850281 0.68499756 -0.6957092 1.6237793q-0.01071167 0.91667175 0.70803833 1.722641z" fill-rule="nonzero"/><path fill="#000000" d="m258.43918 229.48732l1.1160278 -0.8508301q0.8404541 1.1703644 0.75250244 2.407364q-0.0769043 1.2259521 -1.0381165 2.1871796q-1.2043152 1.2042847 -2.7296143 1.1606903q-1.5252991 -0.06567383 -2.9958801 -1.5340118q-0.9508972 -0.94944763 -1.3491821 -1.9653778q-0.39830017 -1.0380096 -0.111312866 -2.0321045q0.29803467 -1.0051422 1.0493469 -1.7564545q0.96121216 -0.96121216 2.0553894 -1.0831299q1.0831146 -0.13293457 2.1444855 0.59558105l-0.8175049 1.1047363q-0.7296448 -0.44148254 -1.3817291 -0.38601685q-0.64105225 0.044418335 -1.1382294 0.5416107q-0.75131226 0.751297 -0.68460083 1.7673492q0.06669617 0.9939575 1.238739 2.164215q1.1831055 1.1812897 2.177887 1.2692566q0.98373413 0.076934814 1.7129211 -0.65226746q0.5855713 -0.5855713 0.6184387 -1.3255615q0.03286743 -0.7620697 -0.6195679 -1.6122284zm0.67337036 -2.2422485q-1.6253662 -1.6228943 -1.5044556 -3.312729q0.10998535 -1.4137115 1.192749 -2.49646q1.215332 -1.2153473 2.7738037 -1.1828003q1.5584412 0.010437012 2.962677 1.4125366q1.1278076 1.1260834 1.4376831 2.1199493q0.30984497 0.99386597 0.022857666 2.0100555q-0.2869873 0.9941101 -1.0603943 1.7675018q-1.2263794 1.2263947 -2.7737732 1.204895q-1.5584412 -0.032546997 -3.0511475 -1.5229492zm1.0275269 -1.0275116q1.1278076 1.1260834 2.1778564 1.2029877q1.0610657 0.06585693 1.8013306 -0.6743927q0.7402649 -0.74024963 0.6624756 -1.7894287q-0.066711426 -1.0602264 -1.2276917 -2.2194366q-1.0835876 -1.0819244 -2.1446838 -1.1477814q-1.0500488 -0.076919556 -1.7903137 0.6633301q-0.7402344 0.7402649 -0.67352295 1.8004913q0.066711426 1.0381317 1.1945496 2.1642303zm8.581421 -2.7036285l-5.8712463 -5.862274l0.894928 -0.89494324l0.82925415 0.8280182q-0.32113647 -1.6013031 0.90527344 -2.8276978q0.53030396 -0.5303345 1.1602173 -0.7845917q0.62991333 -0.2542572 1.160492 -0.16610718q0.5305481 0.088150024 1.0501709 0.43032837q0.33166504 0.22076416 1.0172119 0.9052429l3.615631 3.6101074l-0.99435425 0.9943695l-3.5714111 -3.5659485q-0.6081543 -0.60720825 -1.0282288 -0.78375244q-0.42007446 -0.19863892 -0.8952942 -0.07696533q-0.46417236 0.11061096 -0.8619385 0.5083618q-0.6408081 0.64082336 -0.69573975 1.5133362q-0.05493164 0.85043335 1.072876 1.976532l3.206543 3.2016144l-0.99438477 0.9943695zm6.52417 -6.5241547l-5.0972595 -5.0894775l-0.87283325 0.87283325l-0.77401733 -0.7728119l0.87283325 -0.87283325l-0.630249 -0.6292877q-0.58599854 -0.5851288 -0.7630005 -0.98265076q-0.24337769 -0.5300293 -0.13305664 -1.1264648q0.12133789 -0.6074829 0.77319336 -1.2593536q0.41986084 -0.41984558 1.0275879 -0.8287201l0.7298889 1.0158081q-0.36465454 0.2541504 -0.64086914 0.530365q-0.4529724 0.45298767 -0.44177246 0.8395386q1.2207031E-4 0.37550354 0.5308533 0.905426l0.5418091 0.54096985l1.1380005 -1.1380005l0.7739868 0.7728119l-1.1380005 1.1380005l5.09729 5.0894775l-0.99438477 0.9943695zm-4.0546265 -9.866547l-1.138855 -1.1371307l0.99435425 -0.9943695l1.1388855 1.1371307l-0.99438477 0.9943695zm6.965912 6.955246l-5.8712463 -5.862274l0.99435425 -0.9943695l5.871277 5.862274l-0.99438477 0.9943695zm2.8122253 -1.8399506l1.1160278 -0.8287506q0.50857544 0.3973999 0.9838257 0.3199005q0.6520691 -0.09963989 1.2928772 -0.74046326q0.6850281 -0.68499756 0.7842407 -1.3366547q0.09921265 -0.6516571 -0.26574707 -1.2810364q-0.22122192 -0.37542725 -1.2052917 -1.3579865q0.12213135 1.4246674 -0.8501282 2.3969421q-1.2153625 1.215332 -2.75177 1.006073q-1.5364075 -0.20924377 -2.763733 -1.4346924q-0.84033203 -0.8390503 -1.2496643 -1.8439331q-0.3982849 -1.0159149 -0.21078491 -1.9768524q0.19857788 -0.9719696 0.97198486 -1.7453613q1.0385742 -1.0385742 2.5528564 -0.8734894l-0.7076416 -0.7065582l0.9170227 -0.91703796l5.075165 5.067398q1.3710632 1.3689728 1.6698303 2.2192688q0.29873657 0.8503113 0.02279663 1.7891693q-0.27597046 0.9388733 -1.1598511 1.8227692q-1.0496216 1.0496063 -2.176941 1.2267456q-1.1162415 0.16609192 -2.0450745 -0.80545044zm-2.6985168 -4.3504333q1.1499023 1.1481781 2.1336365 1.2251129q0.9947815 0.06587219 1.679779 -0.61912537q0.6850281 -0.6850128 0.62939453 -1.6679382q-0.066711426 -0.9939575 -1.194519 -2.1200562q-1.0835876 -1.0819244 -2.1004639 -1.1477966q-1.0279541 -0.076919556 -1.7019043 0.5970459q-0.66290283 0.66290283 -0.58517456 1.6679077q0.07775879 1.0050049 1.1392517 2.0648499zm12.536896 -6.46019l-0.8624573 -0.86112976q0.31011963 1.6786194 -0.8720703 2.8608093q-0.5192871 0.5192871 -1.1712952 0.7735443q-0.6409607 0.2432251 -1.160492 0.16610718q-0.5305481 -0.088150024 -1.0501709 -0.4303131q-0.35379028 -0.24284363 -0.9840393 -0.87213135l-3.6377563 -3.632187l0.99438477 -0.9943695l3.250763 3.2457886q0.7850342 0.783844 1.1056519 0.9935608q0.49749756 0.29800415 1.0169373 0.22050476q0.53048706 -0.08856201 0.9724426 -0.5305023q0.45300293 -0.45298767 0.6185608 -1.0605011q0.16552734 -0.62957764 -0.077819824 -1.1817017q-0.23233032 -0.5631714 -0.9842224 -1.3139038l-3.1401672 -3.135376l0.99435425 -0.9943695l5.871277 5.862274l-0.8838806 0.8838959zm2.4361877 -2.436203l-5.871277 -5.8622894l0.8949585 -0.894928l0.884552 0.88319397q-0.27670288 -0.96073914 -0.18844604 -1.4467316q0.08822632 -0.48597717 0.44177246 -0.8395386q0.49719238 -0.49717712 1.3371277 -0.69628906l0.57522583 1.2588196q-0.5746765 0.15484619 -0.93930054 0.51945496q-0.32040405 0.32040405 -0.38653564 0.7842865q-0.06613159 0.44180298 0.17718506 0.90556335q0.36502075 0.6956482 0.9952698 1.3249359l3.0738525 3.0691528l-0.99438477 0.9943695zm6.871643 -8.330048q-0.07696533 1.0271454 -0.38616943 1.7341003q-0.32028198 0.69592285 -0.9058533 1.2814941q-0.9722595 0.9722748 -1.9670105 1.0168304q-0.99472046 0.044555664 -1.7244873 -0.6840973q-0.43121338 -0.43055725 -0.58618164 -0.9827118q-0.1659851 -0.5632019 -0.066711426 -1.0823212q0.099243164 -0.541214 0.3864441 -1.0493622q0.22088623 -0.37557983 0.7401428 -1.0274048q1.0605469 -1.3478088 1.4360352 -2.121048q-0.21008301 -0.20976257 -0.26538086 -0.26496887q-0.6081238 -0.60720825 -1.127594 -0.5738678q-0.72946167 0.044448853 -1.4807739 0.7957611q-0.6960449 0.6960449 -0.7842407 1.2924805q-0.0881958 0.5743408 0.37631226 1.3472595l-1.10495 0.839798q-0.48660278 -0.75083923 -0.57528687 -1.4355469q-0.07763672 -0.695755 0.29785156 -1.4690094q0.36444092 -0.7842865 1.1157532 -1.5355835q0.75128174 -0.751297 1.3922424 -1.0386963q0.65200806 -0.29844666 1.1383362 -0.25445557q0.48632812 0.04399109 0.9838257 0.36408997q0.3095703 0.19866943 0.97299194 0.861084l1.3268433 1.3247986q1.393158 1.3910522 1.8132935 1.7001343q0.43118286 0.29803467 0.9617615 0.4524536l-1.0385742 1.038559q-0.46426392 -0.15444946 -0.9286194 -0.5297699zm-2.2998047 -2.1417236q-0.32022095 0.7621918 -1.2481995 1.9994965q-0.5302429 0.7070465 -0.6737976 1.0715637q-0.14355469 0.3645172 -0.06604004 0.7289429q0.07748413 0.3423462 0.33181763 0.5962677q0.39804077 0.39744568 0.96173096 0.36410522q0.57470703 -0.044403076 1.149231 -0.618927q0.5745239 -0.5745239 0.7732239 -1.2593536q0.19866943 -0.7069092 -0.033691406 -1.358429q-0.16595459 -0.49693298 -0.8293762 -1.1593323l-0.36489868 -0.3643341zm6.768799 -2.6587372l1.0281982 0.739563q-0.33139038 0.5081787 -0.6628418 0.8396301q-0.54138184 0.54138184 -1.0055542 0.6740875q-0.47521973 0.121673584 -0.87316895 -0.032806396q-0.4090271 -0.16549683 -1.3046265 -1.0597534l-3.372406 -3.367218l-0.729187 0.7292023l-0.7739868 -0.7728119l0.729187 -0.7292023l-1.4595032 -1.4572906l0.39727783 -1.5905304l2.05661 2.0534515l0.99435425 -0.9943695l0.7739868 0.7728119l-0.99435425 0.9943695l3.4276733 3.4224243q0.43121338 0.43055725 0.5970459 0.5078125q0.17684937 0.06619263 0.37579346 0.021942139q0.18786621 -0.05529785 0.408844 -0.27626038q0.16574097 -0.16572571 0.3866577 -0.47505188zm-5.092499 -7.038803l-1.138855 -1.1371307l0.99435425 -0.9943695l1.1388855 1.1371307l-0.99438477 0.9943695zm6.965912 6.955246l-5.8712463 -5.8622894l0.99435425 -0.9943695l5.871277 5.8622894l-0.99438477 0.9943695zm-0.8032532 -5.0745544q-1.6253967 -1.6228943 -1.5044556 -3.3127136q0.10998535 -1.4137268 1.192749 -2.4964752q1.215332 -1.2153473 2.7738037 -1.1828003q1.5584412 0.010437012 2.962677 1.4125366q1.1278076 1.1260834 1.4376831 2.1199493q0.30984497 0.9938812 0.022857666 2.0100708q-0.2869873 0.99409485 -1.0603943 1.7674866q-1.2263794 1.2263947 -2.7737732 1.204895q-1.5584412 -0.03253174 -3.0511475 -1.5229492zm1.0274963 -1.0275116q1.1278381 1.1260834 2.177887 1.2029877q1.0610657 0.06587219 1.8013306 -0.6743927q0.7402649 -0.74024963 0.6624756 -1.7894287q-0.066711426 -1.0602264 -1.2276917 -2.2194366q-1.0835876 -1.0819244 -2.1446838 -1.1477814q-1.0500488 -0.076919556 -1.7903137 0.66334534q-0.7402344 0.74024963 -0.67352295 1.8004761q0.066711426 1.0381317 1.194519 2.1642303zm8.581451 -2.7036285l-5.8712463 -5.862274l0.894928 -0.894928l0.82925415 0.8280029q-0.32113647 -1.6013031 0.9052429 -2.8276978q0.5303345 -0.5303345 1.1602478 -0.7845917q0.62991333 -0.2542572 1.160492 -0.16610718q0.5305481 0.088150024 1.0501709 0.43032837q0.33166504 0.22076416 1.0172119 0.9052429l3.615631 3.6101074l-0.99438477 0.9943695l-3.5714111 -3.5659485q-0.6081238 -0.60720825 -1.0281982 -0.78375244q-0.42007446 -0.19863892 -0.8952942 -0.07696533q-0.46417236 0.11062622 -0.8619385 0.5083618q-0.6408081 0.64082336 -0.69573975 1.5133362q-0.05493164 0.85043335 1.072876 1.976532l3.206543 3.2016144l-0.99438477 0.9943695zm4.1363525 -7.649765l0.8285217 -1.1378784q0.67440796 0.51882935 1.370697 0.46333313q0.6963196 -0.07757568 1.3702698 -0.75154114q0.68499756 -0.6850128 0.74005127 -1.2924652q0.04397583 -0.61849976 -0.3319702 -0.99386597q-0.33172607 -0.33119202 -0.81799316 -0.24266052q-0.34262085 0.077438354 -1.348175 0.6852722q-1.3702393 0.8177948 -2.0001526 1.0499725q-0.62994385 0.21008301 -1.2047424 0.07777405q-0.5637207 -0.14337158 -0.9949646 -0.57392883q-0.39804077 -0.39744568 -0.5529785 -0.905426q-0.15493774 -0.50798035 -0.066711426 -1.0381317q0.055114746 -0.4086609 0.34228516 -0.9168091q0.2871704 -0.5302429 0.7401428 -0.9832306q0.69607544 -0.6960602 1.4143677 -1.0166168q0.71832275 -0.32055664 1.3041687 -0.22138977q0.5858154 0.0770874 1.2602234 0.55174255l-0.8395996 1.1047516q-0.5196228 -0.38635254 -1.0943298 -0.31987q-0.57473755 0.066482544 -1.1492615 0.64100647q-0.68499756 0.6850128 -0.75112915 1.2151642q-0.066101074 0.50805664 0.23242188 0.80615234q0.19903564 0.19871521 0.4753723 0.23173523q0.27633667 0.03303528 0.6410217 -0.110687256q0.20996094 -0.099472046 1.1381836 -0.6299591q1.3260498 -0.77360535 1.9338379 -1.0057678q0.59677124 -0.24320984 1.1715393 -0.13298035q0.58584595 0.09918213 1.0944519 0.60702515q0.4975891 0.49679565 0.6415405 1.2367096q0.14398193 0.7178192 -0.16519165 1.5131378q-0.29812622 0.784256 -0.9831543 1.4692688q-1.1490479 1.1490479 -2.2210999 1.2709503q-1.0720825 0.12188721 -2.1776428 -0.65078735z" fill-rule="nonzero"/></g></svg>