<?xml version="1.0" encoding="UTF-8" standalone="no"?>
<svg
   xmlns:dc="http://purl.org/dc/elements/1.1/"
   xmlns:cc="http://creativecommons.org/ns#"
   xmlns:rdf="http://www.w3.org/1999/02/22-rdf-syntax-ns#"
   xmlns:svg="http://www.w3.org/2000/svg"
   xmlns="http://www.w3.org/2000/svg"
   xmlns:sodipodi="http://sodipodi.sourceforge.net/DTD/sodipodi-0.dtd"
   xmlns:inkscape="http://www.inkscape.org/namespaces/inkscape"
   version="1.1"
   viewBox="0 0 486.77167 173.61792"
   fill="none"
   stroke="none"
   stroke-linecap="square"
   stroke-miterlimit="10"
   id="svg137"
   sodipodi:docname="debug_overview.svg"
   width="486.77167"
   height="173.61792"
   inkscape:version="1.0.1 (c497b03c, 2020-09-10)">
  <metadata
     id="metadata143">
    <rdf:RDF>
      <cc:Work
         rdf:about="">
        <dc:format>image/svg+xml</dc:format>
        <dc:type
           rdf:resource="http://purl.org/dc/dcmitype/StillImage" />
      </cc:Work>
    </rdf:RDF>
  </metadata>
  <defs
     id="defs141" />
  <sodipodi:namedview
     pagecolor="#ffffff"
     bordercolor="#666666"
     borderopacity="1"
     objecttolerance="10"
     gridtolerance="10"
     guidetolerance="10"
     inkscape:pageopacity="0"
     inkscape:pageshadow="2"
     inkscape:window-width="1358"
     inkscape:window-height="820"
     id="namedview139"
     showgrid="false"
     inkscape:zoom="0.77916667"
     inkscape:cx="456.75328"
     inkscape:cy="266.18246"
     inkscape:window-x="0"
     inkscape:window-y="25"
     inkscape:window-maximized="0"
     inkscape:current-layer="svg137" />
  <clipPath
     id="p.0">
    <path
       d="M 0,0 H 960 V 720 H 0 Z"
       clip-rule="nonzero"
       id="path10" />
  </clipPath>
  <path
     fill="#000000"
     fill-opacity="0"
     d="m -23.24672,-93.817535 h 960 V 626.18246 h -960 z"
     fill-rule="evenodd"
     id="path13" />
  <path
     fill="#6aa84f"
     d="m 98.99475,21.137845 v 0 c 0,-6.50565 5.27387,-11.77953 11.77953,-11.77953 v 0 c 3.12413,0 6.1203,1.24106 8.32939,3.45015 2.20907,2.20908 3.45013,5.20525 3.45013,8.32938 v 0 c 0,6.50565 -5.27386,11.77953 -11.77952,11.77953 v 0 c -6.50566,0 -11.77953,-5.27388 -11.77953,-11.77953 z"
     fill-rule="evenodd"
     id="path15" />
  <path
     stroke="#000000"
     stroke-width="1"
     stroke-linejoin="round"
     stroke-linecap="butt"
     d="m 98.99475,21.137845 v 0 c 0,-6.50565 5.27387,-11.77953 11.77953,-11.77953 v 0 c 3.12413,0 6.1203,1.24106 8.32939,3.45015 2.20907,2.20908 3.45013,5.20525 3.45013,8.32938 v 0 c 0,6.50565 -5.27386,11.77953 -11.77952,11.77953 v 0 c -6.50566,0 -11.77953,-5.27388 -11.77953,-11.77953 z"
     fill-rule="evenodd"
     id="path17" />
  <path
     fill="#000000"
     fill-opacity="0"
     d="m 0,114.79901 97.70079,-97.700775 41.16536,41.10236 -97.7008,97.700785 z"
     fill-rule="evenodd"
     id="path19" />
  <path
     fill="#000000"
     d="m 39.610126,109.63913 -8.104782,-8.09237 3.038349,-3.038365 q 0.928078,-0.92807 1.73481,-1.24867 0.806728,-0.32059 1.635765,-0.11107 0.829033,0.18744 1.381882,0.73944 0.51968,0.51889 0.696812,1.26984 0.177124,0.72885 -0.09887,1.579365 0.939289,-0.51944 1.856709,-0.39831 0.917427,0.12114 1.625076,0.82771 0.574967,0.57408 0.818405,1.30292 0.243439,0.72882 0.155258,1.34734 -0.08819,0.61851 -0.474777,1.29237 -0.397644,0.66281 -1.171043,1.4362 z m -3.627518,-5.76374 1.756722,-1.75671 q 0.707103,-0.70711 0.91695,-1.11583 0.28717,-0.53024 0.220669,-1.016165 -0.07756,-0.49696 -0.497727,-0.91649 -0.409111,-0.40848 -0.90652,-0.50769 -0.497422,-0.12129 -0.972596,0.1329 -0.475181,0.23212 -1.348014,1.10495 l -1.624138,1.624135 z m 3.737271,3.73155 2.021881,-2.02189 q 0.519279,-0.51928 0.696037,-0.76232 0.298256,-0.43084 0.386528,-0.82848 0.09932,-0.40868 -0.04454,-0.86143 -0.132813,-0.4638 -0.519806,-0.8502 -0.453339,-0.45265 -1.017067,-0.55184 -0.563732,-0.0992 -1.105213,0.17714 -0.552536,0.26528 -1.325936,1.03867 l -1.87825,1.87825 z m 10.452095,-9.988065 q -0.07697,1.02716 -0.386177,1.73411 -0.320267,0.695915 -0.905838,1.281475 -0.972275,0.97229 -1.967003,1.01683 -0.994736,0.0446 -1.724495,-0.68408 -0.431229,-0.43056 -0.586174,-0.982725 -0.166008,-0.56318 -0.06673,-1.0823 0.09927,-0.54122 0.386444,-1.04937 0.220916,-0.37559 0.740142,-1.0274 1.060555,-1.34781 1.436051,-2.12106 -0.210083,-0.20977 -0.265366,-0.26496 -0.608139,-0.60721 -1.127609,-0.57388 -0.729462,0.0445 -1.480766,0.79576 -0.696053,0.69606 -0.784249,1.29248 -0.0882,0.57434 0.376313,1.34728 l -1.104958,0.83978 q -0.48661,-0.75083 -0.575295,-1.43553 -0.07764,-0.69577 0.29786,-1.46901 0.364441,-0.78429 1.115745,-1.5356 0.751297,-0.7513 1.39225,-1.0387 0.652001,-0.29844 1.138336,-0.25445 0.486344,0.044 0.983841,0.36409 0.309555,0.19868 0.972969,0.86108 l 1.326844,1.32481 q 1.393181,1.39106 1.813308,1.70014 0.431168,0.29802 0.961762,0.45244 l -1.038559,1.03857 q -0.464279,-0.15445 -0.928642,-0.52978 z m -2.299797,-2.14171 q -0.320236,0.76217 -1.248192,1.99949 -0.530266,0.70705 -0.673813,1.07157 -0.143547,0.36452 -0.06604,0.72894 0.07751,0.34235 0.331818,0.59627 0.398048,0.397445 0.961731,0.364095 0.574722,-0.0444 1.149246,-0.618915 0.574524,-0.57453 0.773216,-1.25936 0.198677,-0.70691 -0.03368,-1.35844 -0.165977,-0.49693 -0.829399,-1.15933 z m 3.343101,-0.95662 0.828522,-1.13788 q 0.674416,0.51883 1.37072,0.46333 0.696297,-0.0776 1.370254,-0.75152 0.685013,-0.68502 0.740044,-1.29248 0.04398,-0.6185 -0.331963,-0.99385 -0.33171,-0.33121 -0.818,-0.24266 -0.342606,0.0774 -1.348175,0.68525 -1.370232,0.81781 -2.000153,1.04998 -0.629921,0.21008 -1.20472,0.0778 -0.563743,-0.14336 -0.994972,-0.57393 -0.398048,-0.39745 -0.552986,-0.90541 -0.15493,-0.50798 -0.06671,-1.03815 0.05511,-0.40866 0.342285,-0.91681 0.28717,-0.53024 0.740158,-0.98323 0.69606,-0.69606 1.414368,-1.01661 0.718307,-0.32056 1.304145,-0.22139 0.585823,0.0771 1.260224,0.55174 l -0.839585,1.10475 q -0.51963,-0.38635 -1.094352,-0.31987 -0.574715,0.0665 -1.149239,0.64101 -0.685013,0.68501 -0.751121,1.21516 -0.06612,0.50807 0.232414,0.80615 0.199028,0.19872 0.475357,0.23175 0.276329,0.033 0.641022,-0.11068 0.209961,-0.0995 1.138191,-0.62998 1.326034,-0.7736 1.933853,-1.00577 0.596756,-0.24319 1.171539,-0.13298 0.585839,0.0992 1.09446,0.60703 0.497566,0.49679 0.641533,1.23671 0.143959,0.71783 -0.165215,1.51314 -0.298118,0.78425 -0.983131,1.46927 -1.149048,1.14904 -2.221123,1.27095 -1.072067,0.1219 -2.177643,-0.65079 z m 0.846756,-11.25447 -1.138878,-1.13713 0.99437,-0.99437 1.138878,1.13713 z m 6.965912,6.95524 -5.871269,-5.86229 0.99437,-0.99437 5.871269,5.86229 z m 4.180222,-8.48915 1.116005,-0.85084 q 0.840462,1.17038 0.75251,2.40738 -0.0769,1.22593 -1.038124,2.18716 -1.204293,1.2043 -2.729592,1.16071 -1.525306,-0.0657 -2.995887,-1.53402 -0.950905,-0.94944 -1.34919,-1.96537 -0.3983,-1.03801 -0.111305,-2.03212 0.298034,-1.00515 1.049339,-1.75644 0.96122,-0.96123 2.055397,-1.08313 1.083122,-0.13295 2.14447,0.59556 l -0.817482,1.10476 q -0.729652,-0.4415 -1.381744,-0.38602 -0.641045,0.0444 -1.13823,0.54159 -0.751304,0.75132 -0.684593,1.76737 0.0667,0.99396 1.238739,2.1642 1.183098,1.18129 2.177879,1.26927 0.983727,0.0769 1.712929,-0.65227 0.585579,-0.58558 0.618454,-1.32556 0.03286,-0.76207 -0.619575,-1.61223 z m 8.21624,-3.90732 -7.67218,-4.06137 1.027511,-1.02751 4.322571,2.43913 1.603005,0.91608 q -0.06636,-0.11043 -0.895851,-1.51274 l -2.510651,-4.36154 1.027512,-1.02751 4.278389,2.52751 1.415069,0.81674 -0.796356,-1.45755 -2.389084,-4.39471 0.972275,-0.97228 4.037209,7.69634 -1.038559,1.03857 -4.444206,-2.58267 -1.238213,-0.77263 3.340126,5.69759 z m 3.770828,-9.64865 q -1.625381,-1.62289 -1.504448,-3.31271 0.109985,-1.41371 1.192749,-2.49648 1.21534,-1.21533 2.773793,-1.1828 1.55844,0.0105 2.96268,1.41254 1.12782,1.12608 1.43768,2.11997 0.30986,0.99386 0.0229,2.01005 -0.28699,0.9941 -1.06039,1.76749 -1.22639,1.22639 -2.77379,1.20489 -1.558445,-0.0325 -3.051144,-1.52295 z m 1.027512,-1.02751 q 1.127812,1.12609 2.177862,1.203 1.06109,0.0659 1.80134,-0.67439 0.74026,-0.74026 0.66248,-1.78944 -0.0667,-1.06023 -1.2277,-2.21944 -1.08359,-1.08192 -2.14468,-1.14778 -1.050049,-0.0769 -1.790299,0.66335 -0.740249,0.74025 -0.67353,1.80047 0.06672,1.03815 1.194527,2.16423 z m 8.570392,-2.69256 -5.87127,-5.86229 0.89494,-0.89493 0.88456,0.88321 q -0.27669,-0.96076 -0.18845,-1.44675 0.0882,-0.48598 0.44179,-0.83952 0.49719,-0.49719 1.33711,-0.69631 l 0.57524,1.25882 q -0.57469,0.15485 -0.9393,0.51946 -0.3204,0.3204 -0.38654,0.78428 -0.0662,0.44181 0.17719,0.90557 0.36501,0.69566 0.99526,1.32493 l 3.07384,3.06916 z m 3.77861,-3.77861 -8.10479,-8.09238 0.99437,-0.99437 4.62183,4.61476 -0.035,-4.73801 1.29268,-1.29267 -0.0646,4.41775 6.15686,1.22356 -1.22638,1.22639 -4.941,-1.06941 -0.0326,1.38055 2.33303,2.32946 z m -1.30906,-12.61211 -1.13887,-1.13713 0.99437,-0.99437 1.13887,1.13713 z m 6.96591,6.95526 -5.87126,-5.86229 0.99436,-0.99437 5.87127,5.86229 z m 2.51355,-2.51355 -5.87127,-5.86229 0.89493,-0.89493 0.82927,0.82801 q -0.32114,-1.60131 0.90525,-2.82769 0.53033,-0.53033 1.16024,-0.78459 0.62991,-0.25426 1.16047,-0.16611 0.53058,0.0881 1.05018,0.43033 0.33168,0.22075 1.01721,0.90525 l 3.61564,3.6101 -0.99437,0.99437 -3.57141,-3.56595 q -0.60814,-0.6072 -1.02821,-0.78375 -0.42008,-0.19864 -0.8953,-0.077 -0.46418,0.11061 -0.86193,0.50836 -0.64081,0.64081 -0.69574,1.51333 -0.0549,0.85044 1.07287,1.97652 l 3.20654,3.20163 z m 6.59083,-5.61856 1.11601,-0.82875 q 0.50857,0.3974 0.98381,0.31992 0.65208,-0.0997 1.29289,-0.74047 0.68502,-0.68501 0.78424,-1.33667 0.0992,-0.65164 -0.26576,-1.28103 -0.22119,-0.37543 -1.20526,-1.35799 0.12212,1.42467 -0.85016,2.39694 -1.21533,1.21533 -2.75175,1.00609 -1.53641,-0.20926 -2.76374,-1.43471 -0.84034,-0.83905 -1.24967,-1.84392 -0.39829,-1.01593 -0.21076,-1.97685 0.19858,-0.97198 0.97198,-1.74538 1.03856,-1.03855 2.55285,-0.87347 l -0.70765,-0.70657 0.91703,-0.91703 5.07516,5.0674 q 1.37106,1.36898 1.66983,2.21927 0.29875,0.8503 0.0228,1.78917 -0.27595,0.93887 -1.15983,1.82275 -1.04962,1.04961 -2.17693,1.22675 -1.11627,0.16609 -2.04507,-0.80545 z m -2.69855,-4.35042 q 1.14993,1.14816 2.13366,1.2251 0.99477,0.0659 1.67978,-0.61913 0.685,-0.68501 0.62937,-1.66793 -0.0667,-0.99396 -1.19451,-2.12005 -1.08359,-1.08192 -2.10047,-1.14781 -1.02793,-0.0769 -1.7019,0.59705 -0.66291,0.66292 -0.58515,1.66792 0.0778,1.00499 1.13922,2.06485 z"
     fill-rule="nonzero"
     id="path21" />
  <path
     fill="#000000"
     d="m 59.79683,112.29641 1.116005,-0.85085 q 0.840462,1.17037 0.75251,2.40737 -0.0769,1.22594 -1.038124,2.18717 -1.204292,1.2043 -2.729591,1.1607 -1.525307,-0.0657 -2.995888,-1.53401 -0.950905,-0.94945 -1.34919,-1.96538 -0.3983,-1.03801 -0.111305,-2.03212 0.298034,-1.00514 1.049339,-1.75643 0.96122,-0.96123 2.055397,-1.08313 1.083122,-0.13295 2.14447,0.59556 l -0.817482,1.10475 q -0.729652,-0.4415 -1.381744,-0.38601 -0.641045,0.0444 -1.13823,0.5416 -0.751297,0.7513 -0.684593,1.76737 0.0667,0.99395 1.238739,2.16419 1.183098,1.18129 2.17788,1.26928 0.983726,0.0769 1.712936,-0.65227 0.585571,-0.58559 0.618446,-1.32556 0.03287,-0.76207 -0.619575,-1.61223 z m 0.673363,-2.24226 q -1.625382,-1.6229 -1.504448,-3.31272 0.109985,-1.41372 1.192741,-2.49647 1.21534,-1.21533 2.773796,-1.1828 1.558441,0.0104 2.962685,1.41253 1.127815,1.1261 1.437675,2.11997 0.309853,0.99386 0.02287,2.01005 -0.286995,0.9941 -1.060386,1.76749 -1.226395,1.2264 -2.773789,1.2049 -1.558456,-0.0325 -3.051147,-1.52295 z m 1.027511,-1.02752 q 1.127816,1.1261 2.177857,1.20301 1.061096,0.0659 1.801346,-0.6744 0.740249,-0.74024 0.662483,-1.78942 -0.06673,-1.06025 -1.227707,-2.21946 -1.083588,-1.08192 -2.144684,-1.14778 -1.050041,-0.0769 -1.790291,0.66335 -0.740257,0.74025 -0.67353,1.80047 0.06671,1.03815 1.194526,2.16423 z m 8.581444,-2.70361 -5.871269,-5.86229 0.894936,-0.894935 0.829277,0.828015 q -0.321144,-1.601315 0.905243,-2.827695 0.530327,-0.53033 1.16024,-0.78459 0.629913,-0.25427 1.160477,-0.16612 0.530563,0.0882 1.050178,0.43033 0.331665,0.22076 1.017205,0.90524 l 3.615638,3.610115 -0.994369,0.99437 -3.571411,-3.565935 q -0.608139,-0.60721 -1.028206,-0.78377 -0.420082,-0.19863 -0.89531,-0.077 -0.464172,0.11063 -0.861923,0.50838 -0.640816,0.64081 -0.69574,1.513335 -0.05494,0.85043 1.072876,1.97651 l 3.206528,3.20163 z m 6.52417,-6.524175 -5.097282,-5.08948 -0.872833,0.87284 -0.773995,-0.7728 0.872841,-0.87285 -0.630249,-0.62927 q -0.586021,-0.58513 -0.763023,-0.98265 -0.243363,-0.53005 -0.133065,-1.12648 0.121354,-0.60748 0.773217,-1.25934 0.419845,-0.41985 1.027588,-0.82872 l 0.729873,1.01579 q -0.364647,0.25417 -0.640861,0.53038 -0.452988,0.45299 -0.441788,0.83954 1.45e-4,0.37551 0.530884,0.90543 l 0.541794,0.54095 1.137993,-1.13798 0.773994,0.77279 -1.138001,1.138 5.097275,5.08948 z m -4.054626,-9.86655 -1.13887,-1.13713 0.994369,-0.99437 1.13887,1.13713 z m 6.965908,6.95527 -5.871265,-5.86229 0.994369,-0.99437 5.871266,5.86229 z m 2.81223,-1.83997 1.11602,-0.82875 q 0.50857,0.39741 0.98382,0.31991 0.65207,-0.0996 1.29289,-0.74046 0.68501,-0.68501 0.78423,-1.33667 0.0992,-0.65164 -0.26576,-1.28103 -0.2212,-0.37542 -1.20527,-1.35799 0.12213,1.42467 -0.85014,2.39694 -1.21534,1.21535 -2.75176,1.00609 -1.53642,-0.20926 -2.76374,-1.43471 -0.84034,-0.83905 -1.24968,-1.84392 -0.39828,-1.01593 -0.21075,-1.97685 0.19858,-0.97197 0.97198,-1.74538 1.03856,-1.03855 2.55285,-0.87347 l -0.70765,-0.70657 0.91703,-0.91703 5.07517,5.0674 q 1.37106,1.36898 1.66981,2.21927 0.29876,0.8503 0.0228,1.78917 -0.27595,0.93887 -1.15984,1.82275 -1.04961,1.04963 -2.17693,1.22677 -1.11626,0.16609 -2.04507,-0.80547 z m -2.69854,-4.35042 q 1.14992,1.14816 2.13365,1.2251 0.99478,0.0659 1.67979,-0.61913 0.68501,-0.68501 0.62937,-1.66792 -0.0667,-0.99397 -1.19451,-2.12006 -1.08359,-1.08192 -2.10047,-1.14781 -1.02793,-0.0769 -1.7019,0.59705 -0.66291,0.66292 -0.58516,1.66792 0.0778,1.00501 1.13923,2.06485 z m 12.5369,-6.4602 -0.86245,-0.86113 q 0.31012,1.67862 -0.87207,2.86082 -0.51928,0.51927 -1.1713,0.77355 -0.64097,0.24322 -1.16048,0.1661 -0.53057,-0.0882 -1.05017,-0.43033 -0.35379,-0.24284 -0.98404,-0.87211 l -3.63775,-3.63219 0.99437,-0.99437 3.25076,3.24578 q 0.78504,0.78384 1.10566,0.99357 0.49748,0.29801 1.01694,0.22049 0.53049,-0.0886 0.97244,-0.5305 0.45299,-0.45299 0.61854,-1.06049 0.16555,-0.62959 -0.0778,-1.18171 -0.23232,-0.56318 -0.98419,-1.31389 l -3.14019,-3.13539 0.99436,-0.99437 5.87127,5.86229 z m 2.43621,-2.43621 -5.87127,-5.86229 0.89493,-0.89492 0.88455,0.88321 q -0.27668,-0.96076 -0.18844,-1.44674 0.0882,-0.48599 0.44179,-0.83953 0.49718,-0.49718 1.33712,-0.69631 l 0.57522,1.25884 q -0.57468,0.15483 -0.93929,0.51944 -0.3204,0.3204 -0.38654,0.7843 -0.0662,0.44178 0.17719,0.90556 0.365,0.69565 0.99525,1.32494 l 3.07385,3.06913 z m 6.87163,-8.33004 q -0.077,1.02716 -0.38618,1.73411 -0.32027,0.69591 -0.90584,1.28148 -0.97228,0.97227 -1.967,1.01683 -0.99474,0.0446 -1.7245,-0.68408 -0.43123,-0.43057 -0.58617,-0.98273 -0.16601,-0.56319 -0.0667,-1.0823 0.0993,-0.54122 0.38645,-1.04937 0.22091,-0.37559 0.74014,-1.0274 1.06055,-1.34781 1.43605,-2.12106 -0.21008,-0.20977 -0.26537,-0.26496 -0.60813,-0.60721 -1.1276,-0.57388 -0.72947,0.0445 -1.48077,0.79576 -0.69605,0.69606 -0.78425,1.29248 -0.0882,0.57434 0.37631,1.34727 l -1.10495,0.83979 q -0.48662,-0.75083 -0.5753,-1.43553 -0.0776,-0.69577 0.29786,-1.46901 0.36444,-0.78429 1.11575,-1.5356 0.7513,-0.7513 1.39225,-1.0387 0.652,-0.29845 1.13834,-0.25445 0.48633,0.044 0.98383,0.36409 0.30956,0.19868 0.97298,0.86108 l 1.32683,1.32481 q 1.39319,1.39106 1.81331,1.70014 0.43117,0.29802 0.96177,0.45244 l -1.03856,1.03857 q -0.46428,-0.15445 -0.92864,-0.52978 z m -2.2998,-2.14171 q -0.32024,0.76217 -1.2482,1.99949 -0.53026,0.70703 -0.67381,1.07157 -0.14355,0.36451 -0.066,0.72894 0.0775,0.34235 0.33181,0.59627 0.39805,0.39744 0.96173,0.36409 0.57472,-0.0444 1.14925,-0.61891 0.57453,-0.57454 0.77321,-1.25936 0.19868,-0.70691 -0.0337,-1.35844 -0.16599,-0.49693 -0.82941,-1.15933 z m 6.7688,-2.65876 1.0282,0.73958 q -0.33139,0.50817 -0.66284,0.83962 -0.54138,0.54138 -1.00555,0.67409 -0.47522,0.12167 -0.87318,-0.0328 -0.40902,-0.16551 -1.30464,-1.05975 l -3.37238,-3.36723 -0.72921,0.7292 -0.77398,-0.7728 0.7292,-0.7292 -1.45953,-1.45729 0.39729,-1.59055 2.05661,2.05347 0.99437,-0.99437 0.77398,0.7728 -0.99437,0.99437 3.42768,3.42242 q 0.43122,0.43057 0.59704,0.50781 0.17687,0.0662 0.37581,0.022 0.18787,-0.0553 0.40885,-0.27626 0.16572,-0.16573 0.38665,-0.47506 z m -5.09249,-7.0388 -1.13888,-1.13713 0.99437,-0.99437 1.13887,1.13713 z m 6.96591,6.95526 -5.87127,-5.86229 0.99437,-0.99437 5.87127,5.86229 z m -0.80327,-5.07455 q -1.62538,-1.6229 -1.50444,-3.31273 0.10998,-1.41371 1.19273,-2.49648 1.21535,-1.21533 2.77381,-1.1828 1.55844,0.0105 2.96267,1.41254 1.12783,1.1261 1.43769,2.11997 0.30984,0.99386 0.0229,2.01005 -0.287,0.9941 -1.0604,1.7675 -1.22639,1.22638 -2.77378,1.20488 -1.55846,-0.0325 -3.05115,-1.52293 z m 1.02751,-1.02753 q 1.12782,1.1261 2.17786,1.203 1.06109,0.0659 1.80134,-0.67439 0.74027,-0.74025 0.66249,-1.78943 -0.0667,-1.06022 -1.2277,-2.21943 -1.08359,-1.08194 -2.14469,-1.1478 -1.05005,-0.0769 -1.7903,0.66335 -0.74025,0.74024 -0.67352,1.80047 0.0667,1.03815 1.19452,2.16423 z m 8.58145,-2.70361 -5.87128,-5.86229 0.89495,-0.89493 0.82927,0.828 q -0.32114,-1.6013 0.90524,-2.82768 0.53033,-0.53033 1.16025,-0.78459 0.62991,-0.25426 1.16047,-0.16611 0.53057,0.0881 1.05017,0.43033 0.33167,0.22076 1.0172,0.90524 l 3.61565,3.61011 -0.99437,0.99437 -3.57141,-3.56595 q -0.60814,-0.60721 -1.0282,-0.78375 -0.42009,-0.19864 -0.89531,-0.077 -0.46417,0.11062 -0.86192,0.50837 -0.64081,0.6408 -0.69574,1.51333 -0.0549,0.85044 1.07287,1.97652 l 3.20653,3.20163 z"
     fill-rule="nonzero"
     id="path23" />
  <path
     fill="#000000"
     fill-opacity="0"
     d="m 143.32873,21.137845 v 0 c 0,-6.50565 5.27388,-11.77953 11.77953,-11.77953 v 0 c 3.12413,0 6.1203,1.24106 8.32939,3.45015 2.20909,2.20908 3.45015,5.20525 3.45015,8.32938 v 0 c 0,6.50565 -5.27388,11.77953 -11.77954,11.77953 v 0 c -6.50565,0 -11.77953,-5.27388 -11.77953,-11.77953 z"
     fill-rule="evenodd"
     id="path25" />
  <path
     stroke="#000000"
     stroke-width="1"
     stroke-linejoin="round"
     stroke-linecap="butt"
     d="m 143.32873,21.137845 v 0 c 0,-6.50565 5.27388,-11.77953 11.77953,-11.77953 v 0 c 3.12413,0 6.1203,1.24106 8.32939,3.45015 2.20909,2.20908 3.45015,5.20525 3.45015,8.32938 v 0 c 0,6.50565 -5.27388,11.77953 -11.77954,11.77953 v 0 c -6.50565,0 -11.77953,-5.27388 -11.77953,-11.77953 z"
     fill-rule="evenodd"
     id="path27" />
  <path
     fill="#000000"
     fill-opacity="0"
     d="m 139.97441,0.262465 h 30.26771 v 42.01575 h -30.26771 z"
     fill-rule="evenodd"
     id="path29" />
  <path
     fill="#000000"
     d="m 153.27128,23.901215 q 0,-0.32812 0,-0.5 0,-0.96875 0.26562,-1.67187 0.20313,-0.51563 0.64063,-1.0625 0.32812,-0.39063 1.17187,-1.14063 0.85938,-0.75 1.10938,-1.1875 0.26562,-0.45312 0.26562,-0.98437 0,-0.95313 -0.75,-1.67188 -0.73437,-0.73437 -1.82812,-0.73437 -1.04688,0 -1.75,0.65625 -0.70313,0.65625 -0.92188,2.04687 l -1.6875,-0.20312 q 0.23438,-1.85938 1.35938,-2.84375 1.125,-1 2.96875,-1 1.96875,0 3.125,1.0625 1.17187,1.0625 1.17187,2.57812 0,0.875 -0.40625,1.60938 -0.40625,0.73437 -1.60937,1.79687 -0.79688,0.70313 -1.04688,1.04688 -0.25,0.34375 -0.375,0.78125 -0.10937,0.4375 -0.125,1.42187 z m -0.0937,3.28125 v -1.875 h 1.85937 v 1.875 z"
     fill-rule="nonzero"
     id="path31" />
  <path
     fill="#000000"
     fill-opacity="0"
     d="m 444.97374,21.269085 v 0 c 0,-6.50565 5.2739,-11.77953 11.77954,-11.77953 v 0 c 3.12412,0 6.1203,1.24106 8.32938,3.45015 2.2091,2.20909 3.45016,5.20525 3.45016,8.32938 v 0 c 0,6.50565 -5.27389,11.77953 -11.77954,11.77953 v 0 c -6.50565,0 -11.77954,-5.27388 -11.77954,-11.77953 z"
     fill-rule="evenodd"
     id="path33" />
  <path
     stroke="#000000"
     stroke-width="1"
     stroke-linejoin="round"
     stroke-linecap="butt"
     d="m 444.97374,21.269085 v 0 c 0,-6.50565 5.2739,-11.77953 11.77954,-11.77953 v 0 c 3.12412,0 6.1203,1.24106 8.32938,3.45015 2.2091,2.20909 3.45016,5.20525 3.45016,8.32938 v 0 c 0,6.50565 -5.27389,11.77953 -11.77954,11.77953 v 0 c -6.50565,0 -11.77954,-5.27388 -11.77954,-11.77953 z"
     fill-rule="evenodd"
     id="path35" />
  <path
     fill="#000000"
     fill-opacity="0"
     d="m 448.4239,12.939695 16.66141,16.66142"
     fill-rule="evenodd"
     id="path37" />
  <path
     stroke="#ff0000"
     stroke-width="4"
     stroke-linejoin="round"
     stroke-linecap="butt"
     d="m 448.4239,12.939695 16.66141,16.66142"
     fill-rule="evenodd"
     id="path39" />
  <path
     fill="#000000"
     fill-opacity="0"
     d="m 450.02754,30.671985 15.05512,-17.73229"
     fill-rule="evenodd"
     id="path41" />
  <path
     stroke="#ff0000"
     stroke-width="4"
     stroke-linejoin="round"
     stroke-linecap="butt"
     d="m 450.02754,30.671985 15.05512,-17.73229"
     fill-rule="evenodd"
     id="path43" />
  <path
     fill="#000000"
     fill-opacity="0"
     d="m 356.25198,107.77588 89.35434,-89.354325 41.16534,41.10235 -89.35431,89.354335 z"
     fill-rule="evenodd"
     id="path45" />
  <path
     fill="#000000"
     d="m 392.63664,105.84146 -8.10477,-8.092385 5.46903,-5.46903 0.95089,0.94945 -4.39733,4.39732 2.50994,2.506095 3.80069,-3.800695 0.96198,0.96048 -3.80069,3.800715 3.68198,3.67634 z m 9.82712,-11.285535 q -0.077,1.02716 -0.38617,1.73412 -0.32028,0.69591 -0.90585,1.28148 -0.97226,0.97227 -1.96702,1.01683 -0.99472,0.0445 -1.72448,-0.68409 -0.43122,-0.43057 -0.58618,-0.98272 -0.16599,-0.5632 -0.0667,-1.08232 0.0993,-0.5412 0.38645,-1.04935 0.22092,-0.3756 0.74014,-1.02741 1.06055,-1.34782 1.43604,-2.12106 -0.21009,-0.20976 -0.26535,-0.26497 -0.60816,-0.60719 -1.12763,-0.57386 -0.72946,0.0445 -1.48074,0.79576 -0.69608,0.69606 -0.78427,1.29248 -0.0882,0.57434 0.37631,1.34726 l -1.10495,0.83979 q -0.4866,-0.75082 -0.57529,-1.43554 -0.0776,-0.69576 0.29785,-1.46901 0.36444,-0.78429 1.11576,-1.53559 0.75128,-0.75129 1.39224,-1.03869 0.65201,-0.29845 1.13834,-0.25446 0.48635,0.044 0.98385,0.36409 0.30954,0.19867 0.97296,0.86109 l 1.32685,1.32481 q 1.39319,1.39104 1.81329,1.70012 0.43118,0.29803 0.96176,0.45245 l -1.03854,1.03856 q -0.4643,-0.15443 -0.92865,-0.52977 z m -2.29981,-2.14171 q -0.32022,0.76218 -1.2482,1.9995 -0.53024,0.70703 -0.67379,1.07155 -0.14356,0.36452 -0.066,0.72896 0.0775,0.34234 0.33181,0.59626 0.39804,0.39743 0.96173,0.36409 0.57474,-0.0444 1.14927,-0.61892 0.57452,-0.57453 0.77319,-1.25934 0.1987,-0.70693 -0.0337,-1.35845 -0.16599,-0.49693 -0.82941,-1.15933 z m -1.46698,-6.55424 -1.13888,-1.13713 0.99438,-0.99437 1.13886,1.13713 z m 6.96592,6.95524 -5.87128,-5.86227 0.99435,-0.99437 5.87128,5.86228 z m 2.49142,-2.49144 -8.10477,-8.09237 0.99436,-0.99437 8.10479,8.09238 z m 4.65552,-8.43411 1.14914,-0.90608 q 0.6636,1.14836 0.49826,2.30807 -0.1543,1.14867 -1.17075,2.16514 -1.29269,1.29267 -2.84009,1.24909 -1.54742,-0.0436 -2.97375,-1.46775 -1.48166,-1.47937 -1.53751,-3.05869 -0.0559,-1.57931 1.15946,-2.79466 1.17114,-1.17114 2.71856,-1.10547 1.5474,0.0436 2.99588,1.48984 0.0884,0.0883 0.26535,0.26497 l -4.37521,4.37521 q 1.02826,0.91629 2.03406,0.94904 1.00583,0.0107 1.73501,-0.71854 0.55243,-0.55243 0.65165,-1.22618 0.0992,-0.67374 -0.31006,-1.52399 z m -4.87363,1.64746 3.27036,-3.27037 q -0.8071,-0.67338 -1.48136,-0.72835 -1.05005,-0.099 -1.80133,0.6523 -0.68503,0.68502 -0.69571,1.62378 -0.0107,0.91669 0.70804,1.72264 z m 12.84662,-5.84182 -0.74084,-0.73969 q 0.32107,1.42459 -0.76166,2.50734 -0.70713,0.70711 -1.67969,0.90628 -0.97256,0.19917 -2.00061,-0.1649 -1.017,-0.37511 -1.91263,-1.26936 -0.88455,-0.88321 -1.30493,-1.87703 -0.42041,-1.01592 -0.21075,-1.97686 0.19857,-0.97198 0.92776,-1.70118 0.53033,-0.53032 1.16028,-0.71833 0.64099,-0.19903 1.25998,-0.0888 l -2.90799,-2.90354 0.99435,-0.99437 8.1048,8.09238 z m -6.0679,0.21215 q 1.12781,1.12609 2.16681,1.21405 1.02792,0.0769 1.66876,-0.5639 0.65185,-0.65187 0.5741,-1.63478 -0.0778,-1.00501 -1.1724,-2.09798 -1.2052,-1.20335 -2.23315,-1.30237 -1.02796,-0.099 -1.71295,0.586 -0.66291,0.66292 -0.56308,1.64583 0.0999,0.98291 1.27191,2.15315 z m 11.70264,-5.84692 -5.87125,-5.86229 0.88388,-0.88388 0.81821,0.81697 q -0.155,-0.70677 0.0437,-1.4137 0.19867,-0.72898 0.78424,-1.31456 0.65185,-0.65187 1.34814,-0.79571 0.68521,-0.15488 1.33744,0.16516 -0.33225,-1.72279 0.78366,-2.8387 0.87283,-0.87283 1.82339,-0.8511 0.95053,-3.7e-4 1.95673,1.00428 l 4.03579,4.02964 -0.9833,0.9833 -3.7041,-3.69842 q -0.59708,-0.59616 -0.95084,-0.75064 -0.36481,-0.16553 -0.77371,-0.066 -0.41999,0.0885 -0.76248,0.43103 -0.61872,0.61871 -0.61841,1.43599 3e-4,0.81727 0.90698,1.72256 l 3.41663,3.41139 -0.99439,0.99437 -3.81464,-3.80883 q -0.66342,-0.6624 -1.23822,-0.75054 -0.57476,-0.0881 -1.12719,0.4643 -0.41983,0.41984 -0.55225,0.9942 -0.13241,0.57435 0.13306,1.17064 0.2655,0.5742 1.06161,1.36909 l 3.05173,3.04706 z m 6.1076,-11.98541 q -1.62537,-1.6229 -1.50446,-3.31273 0.10999,-1.41371 1.19275,-2.49646 1.21534,-1.21535 2.77381,-1.18282 1.55844,0.0104 2.96267,1.41255 1.12781,1.12609 1.43769,2.11995 0.30984,0.99387 0.0229,2.01006 -0.28699,0.99409 -1.0604,1.7675 -1.22638,1.22638 -2.77377,1.2049 -1.55844,-0.0325 -3.05115,-1.52295 z m 1.02753,-1.02753 q 1.1278,1.1261 2.17785,1.203 1.06107,0.0659 1.80133,-0.67439 0.74027,-0.74025 0.66248,-1.78943 -0.0667,-1.06023 -1.22769,-2.21944 -1.08359,-1.08192 -2.14469,-1.14779 -1.05004,-0.0769 -1.79031,0.66334 -0.74023,0.74025 -0.67352,1.80049 0.0667,1.03814 1.19455,2.16422 z m 12.38214,-6.50432 -0.74085,-0.73968 q 0.32108,1.4246 -0.76165,2.50735 -0.70713,0.70711 -1.67969,0.90628 -0.97257,0.19917 -2.00061,-0.1649 -1.017,-0.37512 -1.91263,-1.26936 -0.88455,-0.88321 -1.30493,-1.87703 -0.42041,-1.01592 -0.21076,-1.97686 0.19858,-0.97198 0.92777,-1.70118 0.53033,-0.53032 1.16028,-0.71833 0.64099,-0.19903 1.25998,-0.0888 l -2.90799,-2.90354 0.99435,-0.99437 8.1048,8.09238 z m -6.0679,0.21218 q 1.1278,1.12608 2.16681,1.21405 1.02792,0.0769 1.66876,-0.56391 0.65185,-0.65187 0.57409,-1.63478 -0.0777,-1.005 -1.17239,-2.09798 -1.2052,-1.20337 -2.23315,-1.30236 -1.02796,-0.099 -1.71296,0.58599 -0.6629,0.66292 -0.56304,1.64583 0.0998,0.9829 1.27188,2.15316 z m 10.6792,-8.60209 1.14913,-0.90608 q 0.66361,1.14836 0.49827,2.30808 -0.1543,1.14866 -1.17075,2.16513 -1.29269,1.29268 -2.84009,1.2491 -1.54742,-0.0436 -2.97375,-1.46776 -1.48166,-1.47937 -1.53751,-3.05869 -0.0559,-1.57931 1.15945,-2.79466 1.17115,-1.17114 2.71857,-1.10547 1.5474,0.0436 2.99588,1.48984 0.0884,0.0883 0.26535,0.26495 l -4.37521,4.37523 q 1.02826,0.91629 2.03409,0.94904 1.0058,0.0106 1.73498,-0.71855 0.55243,-0.55242 0.65164,-1.22617 0.0993,-0.67374 -0.31005,-1.52399 z m -4.87363,1.64746 3.27035,-3.27037 q -0.80709,-0.67338 -1.48135,-0.72836 -1.05005,-0.099 -1.80133,0.65231 -0.68503,0.68502 -0.69571,1.62378 -0.0107,0.91669 0.70804,1.72264 z m 9.0238,-2.01904 -8.10476,-8.09238 0.99435,-0.99436 8.1048,8.09237 z"
     fill-rule="nonzero"
     id="path47" />
  <path
     fill="#000000"
     d="m 407.70235,113.61973 1.116,-0.85083 q 0.84045,1.17035 0.7525,2.40736 -0.0769,1.22595 -1.03812,2.18718 -1.20428,1.20429 -2.72958,1.16069 -1.5253,-0.0657 -2.99588,-1.53401 -0.9509,-0.94945 -1.34921,-1.96538 -0.39829,-1.03802 -0.1113,-2.0321 0.29803,-1.00514 1.04935,-1.75645 0.96121,-0.96122 2.05539,-1.08313 1.08313,-0.13294 2.14447,0.59558 l -0.81748,1.10473 q -0.72964,-0.44149 -1.38174,-0.38601 -0.64106,0.0444 -1.13825,0.54161 -0.75128,0.75129 -0.68457,1.76734 0.0667,0.99396 1.23874,2.16421 1.18308,1.18129 2.17789,1.26926 0.9837,0.0769 1.71292,-0.65226 0.58557,-0.58557 0.61844,-1.32556 0.0329,-0.76207 -0.61957,-1.61223 z m 0.67337,-2.24226 q -1.6254,-1.62289 -1.50446,-3.31271 0.10999,-1.41373 1.19275,-2.49648 1.21534,-1.21534 2.77378,-1.18279 1.55847,0.0104 2.9627,1.41254 1.12781,1.12608 1.43766,2.11995 0.30987,0.99387 0.0229,2.01005 -0.28699,0.99411 -1.0604,1.7675 -1.22638,1.2264 -2.77377,1.2049 -1.55847,-0.0326 -3.05115,-1.52296 z m 1.0275,-1.02751 q 1.1278,1.12608 2.17785,1.20299 1.0611,0.0659 1.80136,-0.6744 0.74024,-0.74024 0.66248,-1.78942 -0.0667,-1.06023 -1.22772,-2.21944 -1.08359,-1.08192 -2.14466,-1.14778 -1.05004,-0.0769 -1.79031,0.66333 -0.74023,0.74026 -0.67352,1.80049 0.0667,1.03813 1.19452,2.16423 z m 8.58145,-2.70363 -5.87128,-5.86227 0.89493,-0.89495 0.82928,0.82803 q -0.32113,-1.60131 0.90525,-2.827705 0.53033,-0.53033 1.16024,-0.78459 0.62992,-0.25425 1.16047,-0.1661 0.53057,0.0881 1.0502,0.43032 0.33166,0.22077 1.01718,0.90525 l 3.61566,3.610095 -0.99438,0.99437 -3.57142,-3.56594 q -0.60812,-0.607205 -1.02819,-0.783755 -0.42008,-0.19864 -0.8953,-0.077 -0.4642,0.11061 -0.86194,0.50836 -0.64081,0.640815 -0.69574,1.513335 -0.0549,0.85043 1.07288,1.97653 l 3.20651,3.20161 z m 6.52417,-6.52415 -5.09729,-5.089475 -0.87284,0.87283 -0.77398,-0.77281 0.87283,-0.87283 -0.63025,-0.62929 q -0.58603,-0.58513 -0.763,-0.98265 -0.24338,-0.53003 -0.13309,-1.12647 0.12137,-0.60748 0.77323,-1.25935 0.41983,-0.41985 1.02759,-0.82872 l 0.72985,1.01581 q -0.36462,0.25415 -0.64083,0.53036 -0.45301,0.45299 -0.44181,0.83954 1.6e-4,0.37551 0.53089,0.90543 l 0.54181,0.54097 1.138,-1.138 0.77398,0.77281 -1.138,1.138 5.09726,5.089475 z m -4.05463,-9.866545 -1.13888,-1.13713 0.99438,-0.99437 1.13889,1.13713 z m 6.96591,6.95525 -5.87127,-5.86228 0.99438,-0.99437 5.87128,5.86228 z m 2.81223,-1.83995 1.11603,-0.82876 q 0.50857,0.3974 0.98379,0.3199 0.6521,-0.0996 1.29291,-0.74046 0.685,-0.685 0.78424,-1.33665 0.0992,-0.65166 -0.26578,-1.28104 -0.22119,-0.37543 -1.20526,-1.35799 0.12213,1.42467 -0.85016,2.39695 -1.21533,1.21533 -2.75174,1.00607 -1.5364,-0.20924 -2.76373,-1.43469 -0.84033,-0.83905 -1.24969,-1.84394 -0.39829,-1.01591 -0.21076,-1.97685 0.19858,-0.97197 0.97199,-1.74536 1.03854,-1.03857 2.55285,-0.87349 l -0.70764,-0.70656 0.91702,-0.91704 5.07517,5.0674 q 1.37106,1.36898 1.6698,2.21927 0.29876,0.85031 0.0228,1.78919 -0.27594,0.93885 -1.15982,1.82275 -1.04962,1.04961 -2.17694,1.22675 -1.11627,0.16609 -2.04507,-0.80545 z m -2.69855,-4.35044 q 1.14993,1.14818 2.13367,1.22511 0.99478,0.0659 1.67978,-0.61912 0.68499,-0.68501 0.62936,-1.66794 -0.0667,-0.99396 -1.19452,-2.12006 -1.08359,-1.08192 -2.10046,-1.14779 -1.02793,-0.0769 -1.70188,0.59704 -0.66293,0.66291 -0.58517,1.66791 0.0778,1.00501 1.13922,2.06485 z m 12.5369,-6.46019 -0.86243,-0.86113 q 0.31012,1.67862 -0.87207,2.86081 -0.51929,0.51929 -1.17133,0.77355 -0.64096,0.24322 -1.16046,0.16612 -0.53058,-0.0882 -1.05017,-0.43033 -0.35379,-0.24284 -0.98404,-0.87213 l -3.63775,-3.63219 0.99438,-0.99437 3.25073,3.24579 q 0.78507,0.78384 1.10569,0.99356 0.49746,0.29801 1.01693,0.22051 0.53049,-0.0886 0.97245,-0.53051 0.45297,-0.45298 0.61853,-1.0605 0.16555,-0.62958 -0.0778,-1.1817 -0.23233,-0.56317 -0.9842,-1.3139 l -3.14019,-3.13538 0.99438,-0.99437 5.87125,5.86228 z m 2.43622,-2.4362 -5.87128,-5.86229 0.89493,-0.89493 0.88458,0.88321 q -0.2767,-0.96075 -0.18848,-1.44675 0.0883,-0.48597 0.44181,-0.83953 0.49719,-0.49718 1.33712,-0.69629 l 0.57523,1.25882 q -0.57471,0.15484 -0.9393,0.51945 -0.32041,0.3204 -0.38654,0.78429 -0.0662,0.4418 0.17719,0.90556 0.36502,0.69565 0.99527,1.32494 l 3.07382,3.06915 z m 6.87164,-8.33005 q -0.077,1.02715 -0.3862,1.7341 -0.32025,0.69592 -0.90582,1.2815 -0.97229,0.97227 -1.96701,1.01683 -0.99476,0.0445 -1.72449,-0.6841 -0.43125,-0.43056 -0.58618,-0.98271 -0.16602,-0.56321 -0.0668,-1.08232 0.0993,-0.54122 0.38645,-1.04937 0.22092,-0.37558 0.74014,-1.0274 1.06055,-1.34781 1.43607,-2.12105 -0.21009,-0.20976 -0.26538,-0.26497 -0.60813,-0.60721 -1.1276,-0.57387 -0.72946,0.0445 -1.48077,0.79576 -0.69605,0.69605 -0.78424,1.29249 -0.0882,0.57434 0.37631,1.34725 l -1.10498,0.8398 q -0.4866,-0.75084 -0.57529,-1.43554 -0.0776,-0.69576 0.29788,-1.46901 0.36445,-0.78429 1.11573,-1.53559 0.75131,-0.75129 1.39227,-1.03869 0.65198,-0.29845 1.13834,-0.25446 0.48632,0.044 0.98382,0.36409 0.30954,0.19867 0.97296,0.86109 l 1.32685,1.32479 q 1.39319,1.39106 1.81332,1.70014 0.43115,0.29803 0.96176,0.45245 l -1.03857,1.03856 q -0.46427,-0.15445 -0.92862,-0.52977 z m -2.29981,-2.14172 q -0.32025,0.76219 -1.2482,1.99949 -0.53027,0.70705 -0.67379,1.07157 -0.14356,0.36451 -0.066,0.72894 0.0775,0.34235 0.33178,0.59627 0.39807,0.39744 0.96173,0.3641 0.57474,-0.0444 1.14927,-0.61892 0.57452,-0.57453 0.77322,-1.25936 0.19867,-0.70691 -0.0337,-1.35843 -0.16599,-0.49693 -0.82941,-1.15933 z m 6.7688,-2.65874 1.0282,0.73956 q -0.33139,0.50818 -0.66284,0.83963 -0.54138,0.54138 -1.00556,0.67409 -0.47521,0.12167 -0.87316,-0.0328 -0.40903,-0.16549 -1.30466,-1.05975 l -3.37238,-3.36722 -0.72918,0.72921 -0.77402,-0.77282 0.72922,-0.7292 -1.45954,-1.45729 0.39731,-1.59053 2.05658,2.05345 0.99439,-0.99437 0.77398,0.77281 -0.99435,0.99437 3.42764,3.42243 q 0.43124,0.43055 0.59705,0.50781 0.17688,0.0662 0.37582,0.0219 0.18787,-0.0553 0.40884,-0.27626 0.16572,-0.16572 0.38666,-0.47505 z m -5.0925,-7.0388 -1.13885,-1.13713 0.99435,-0.99437 1.13889,1.13713 z m 6.96592,6.95524 -5.87128,-5.86229 0.99438,-0.99437 5.87128,5.86229 z m -0.80326,-5.07455 q -1.62539,-1.6229 -1.50445,-3.31272 0.10998,-1.41371 1.19275,-2.49647 1.21533,-1.21535 2.77377,-1.1828 1.55844,0.0104 2.96271,1.41254 1.1278,1.12608 1.43765,2.11995 0.30987,0.99388 0.0229,2.01007 -0.28699,0.99409 -1.0604,1.76748 -1.22638,1.2264 -2.77377,1.2049 -1.55847,-0.0325 -3.05115,-1.52295 z m 1.0275,-1.02751 q 1.12781,1.12608 2.17786,1.20298 1.06109,0.0659 1.80136,-0.67439 0.74023,-0.74025 0.66247,-1.78943 -0.0667,-1.06022 -1.22772,-2.21943 -1.08359,-1.08193 -2.14468,-1.14778 -1.05002,-0.0769 -1.79029,0.66334 -0.74026,0.74025 -0.67352,1.80048 0.0667,1.03814 1.19452,2.16423 z m 8.58145,-2.70363 -5.87128,-5.86228 0.89493,-0.89492 0.82929,0.828 q -0.32114,-1.6013 0.90524,-2.8277 0.53033,-0.53033 1.16025,-0.78459 0.62991,-0.25426 1.16046,-0.16611 0.53058,0.0881 1.0502,0.43033 0.33166,0.22077 1.01718,0.90524 l 3.61566,3.61011 -0.99438,0.99437 -3.57141,-3.56595 q -0.60813,-0.60721 -1.0282,-0.78375 -0.42008,-0.19864 -0.89533,-0.077 -0.46417,0.11063 -0.8619,0.50837 -0.64081,0.64082 -0.69574,1.51335 -0.0549,0.85043 1.07287,1.97651 l 3.20651,3.20162 z"
     fill-rule="nonzero"
     id="path49" />
  <path
     fill="#000000"
     fill-opacity="0"
     d="m 191.01706,21.675905 v 0 c 0,-6.50565 5.27388,-11.77953 11.77953,-11.77953 v 0 c 3.12413,0 6.1203,1.24105 8.32939,3.45015 2.20909,2.20909 3.45013,5.20526 3.45013,8.32938 v 0 c 0,6.50565 -5.27386,11.77953 -11.77952,11.77953 v 0 c -6.50565,0 -11.77953,-5.27388 -11.77953,-11.77953 z"
     fill-rule="evenodd"
     id="path51" />
  <path
     stroke="#000000"
     stroke-width="1"
     stroke-linejoin="round"
     stroke-linecap="butt"
     d="m 191.01706,21.675905 v 0 c 0,-6.50565 5.27388,-11.77953 11.77953,-11.77953 v 0 c 3.12413,0 6.1203,1.24105 8.32939,3.45015 2.20909,2.20909 3.45013,5.20526 3.45013,8.32938 v 0 c 0,6.50565 -5.27386,11.77953 -11.77952,11.77953 v 0 c -6.50565,0 -11.77953,-5.27388 -11.77953,-11.77953 z"
     fill-rule="evenodd"
     id="path53" />
  <path
     fill="#000000"
     fill-opacity="0"
     d="m 187.66273,0.800525 h 30.26771 v 42.01575 h -30.26771 z"
     fill-rule="evenodd"
     id="path55" />
  <path
     fill="#000000"
     d="m 200.95961,24.439275 q 0,-0.32813 0,-0.5 0,-0.96875 0.26562,-1.67188 0.20313,-0.51562 0.64063,-1.0625 0.32812,-0.39062 1.17187,-1.14062 0.85938,-0.75 1.10938,-1.1875 0.26562,-0.45313 0.26562,-0.98438 0,-0.95312 -0.75,-1.67187 -0.73437,-0.73438 -1.82812,-0.73438 -1.04688,0 -1.75,0.65625 -0.70313,0.65625 -0.92188,2.04688 l -1.6875,-0.20313 q 0.23438,-1.85937 1.35938,-2.84375 1.125,-1 2.96875,-1 1.96875,0 3.125,1.0625 1.17187,1.0625 1.17187,2.57813 0,0.875 -0.40625,1.60937 -0.40625,0.73438 -1.60937,1.79688 -0.79688,0.70312 -1.04688,1.04687 -0.25,0.34375 -0.375,0.78125 -0.10937,0.4375 -0.125,1.42188 z m -0.0937,3.28125 v -1.875 h 1.85937 v 1.875 z"
     fill-rule="nonzero"
     id="path57" />
  <path
     fill="#000000"
     fill-opacity="0"
     d="m 238.70538,21.006615 v 0 c 0,-6.50565 5.2739,-11.77953 11.77954,-11.77953 v 0 c 3.12412,0 6.1203,1.24106 8.32938,3.45015 2.2091,2.20908 3.45016,5.20525 3.45016,8.32938 v 0 c 0,6.50565 -5.27389,11.77953 -11.77954,11.77953 v 0 c -6.50565,0 -11.77954,-5.27388 -11.77954,-11.77953 z"
     fill-rule="evenodd"
     id="path59" />
  <path
     stroke="#000000"
     stroke-width="1"
     stroke-linejoin="round"
     stroke-linecap="butt"
     d="m 238.70538,21.006615 v 0 c 0,-6.50565 5.2739,-11.77953 11.77954,-11.77953 v 0 c 3.12412,0 6.1203,1.24106 8.32938,3.45015 2.2091,2.20908 3.45016,5.20525 3.45016,8.32938 v 0 c 0,6.50565 -5.27389,11.77953 -11.77954,11.77953 v 0 c -6.50565,0 -11.77954,-5.27388 -11.77954,-11.77953 z"
     fill-rule="evenodd"
     id="path61" />
  <path
     fill="#000000"
     fill-opacity="0"
     d="m 235.35106,0.131235 h 30.2677 v 42.01574 h -30.2677 z"
     fill-rule="evenodd"
     id="path63" />
  <path
     fill="#000000"
     d="m 248.64793,23.769985 q 0,-0.32813 0,-0.5 0,-0.96875 0.26563,-1.67188 0.20312,-0.51562 0.64062,-1.0625 0.32813,-0.39062 1.17188,-1.14062 0.85937,-0.75 1.10937,-1.1875 0.26563,-0.45313 0.26563,-0.98438 0,-0.95312 -0.75,-1.67187 -0.73438,-0.73438 -1.82813,-0.73438 -1.04687,0 -1.75,0.65625 -0.70312,0.65625 -0.92187,2.04688 l -1.6875,-0.20313 q 0.23437,-1.85937 1.35937,-2.84375 1.125,-1 2.96875,-1 1.96875,0 3.125,1.0625 1.17188,1.0625 1.17188,2.57813 0,0.875 -0.40625,1.60937 -0.40625,0.73438 -1.60938,1.79688 -0.79687,0.70312 -1.04687,1.04687 -0.25,0.34375 -0.375,0.78125 -0.10938,0.4375 -0.125,1.42188 z m -0.0937,3.28125 v -1.875 h 1.85938 v 1.875 z"
     fill-rule="nonzero"
     id="path65" />
  <path
     fill="#000000"
     fill-opacity="0"
     d="m 398.08202,20.875385 v 0 c 0,-6.50565 5.27386,-11.77953 11.77954,-11.77953 v 0 c 3.12412,0 6.1203,1.24106 8.32938,3.45015 2.20907,2.20908 3.45013,5.20525 3.45013,8.32938 v 0 c 0,6.50565 -5.27386,11.77953 -11.77951,11.77953 v 0 c -6.50568,0 -11.77954,-5.27388 -11.77954,-11.77953 z"
     fill-rule="evenodd"
     id="path67" />
  <path
     stroke="#000000"
     stroke-width="1"
     stroke-linejoin="round"
     stroke-linecap="butt"
     d="m 398.08202,20.875385 v 0 c 0,-6.50565 5.27386,-11.77953 11.77954,-11.77953 v 0 c 3.12412,0 6.1203,1.24106 8.32938,3.45015 2.20907,2.20908 3.45013,5.20525 3.45013,8.32938 v 0 c 0,6.50565 -5.27386,11.77953 -11.77951,11.77953 v 0 c -6.50568,0 -11.77954,-5.27388 -11.77954,-11.77953 z"
     fill-rule="evenodd"
     id="path69" />
  <path
     fill="#000000"
     fill-opacity="0"
     d="m 394.72768,0 h 30.26773 v 42.015745 h -30.26773 z"
     fill-rule="evenodd"
     id="path71" />
  <path
     fill="#000000"
     d="m 408.02455,23.638745 q 0,-0.32812 0,-0.5 0,-0.96875 0.26563,-1.67187 0.20312,-0.51563 0.64062,-1.0625 0.32813,-0.39063 1.17188,-1.14063 0.85937,-0.75 1.10937,-1.1875 0.26563,-0.45312 0.26563,-0.98437 0,-0.95313 -0.75,-1.67188 -0.73438,-0.73437 -1.82813,-0.73437 -1.04687,0 -1.75,0.65625 -0.70312,0.65625 -0.92187,2.04687 l -1.6875,-0.20312 q 0.23437,-1.85938 1.35937,-2.84375 1.125,-1 2.96875,-1 1.96875,0 3.125,1.0625 1.17188,1.0625 1.17188,2.57812 0,0.875 -0.40625,1.60938 -0.40625,0.73437 -1.60938,1.79687 -0.79687,0.70313 -1.04687,1.04688 -0.25,0.34375 -0.375,0.78125 -0.10938,0.4375 -0.125,1.42187 z m -0.0937,3.28125 v -1.875 h 1.85938 v 1.875 z"
     fill-rule="nonzero"
     id="path73" />
  <path
     fill="#000000"
     fill-opacity="0"
     d="m 286.39368,21.675905 v 0 c 0,-6.50565 5.2739,-11.77953 11.77954,-11.77953 v 0 c 3.12412,0 6.1203,1.24105 8.32938,3.45015 2.2091,2.20909 3.45013,5.20526 3.45013,8.32938 v 0 c 0,6.50565 -5.27386,11.77953 -11.77951,11.77953 v 0 c -6.50565,0 -11.77954,-5.27388 -11.77954,-11.77953 z"
     fill-rule="evenodd"
     id="path75" />
  <path
     stroke="#000000"
     stroke-width="1"
     stroke-linejoin="round"
     stroke-linecap="butt"
     d="m 286.39368,21.675905 v 0 c 0,-6.50565 5.2739,-11.77953 11.77954,-11.77953 v 0 c 3.12412,0 6.1203,1.24105 8.32938,3.45015 2.2091,2.20909 3.45013,5.20526 3.45013,8.32938 v 0 c 0,6.50565 -5.27386,11.77953 -11.77951,11.77953 v 0 c -6.50565,0 -11.77954,-5.27388 -11.77954,-11.77953 z"
     fill-rule="evenodd"
     id="path77" />
  <path
     fill="#000000"
     fill-opacity="0"
     d="m 283.03938,0.800525 h 30.2677 v 42.01575 h -30.2677 z"
     fill-rule="evenodd"
     id="path79" />
  <path
     fill="#000000"
     d="m 296.33626,24.439275 q 0,-0.32813 0,-0.5 0,-0.96875 0.26563,-1.67188 0.20312,-0.51562 0.64062,-1.0625 0.32813,-0.39062 1.17188,-1.14062 0.85937,-0.75 1.10937,-1.1875 0.26563,-0.45313 0.26563,-0.98438 0,-0.95312 -0.75,-1.67187 -0.73438,-0.73438 -1.82813,-0.73438 -1.04687,0 -1.75,0.65625 -0.70312,0.65625 -0.92187,2.04688 l -1.6875,-0.20313 q 0.23437,-1.85937 1.35937,-2.84375 1.125,-1 2.96875,-1 1.96875,0 3.125,1.0625 1.17188,1.0625 1.17188,2.57813 0,0.875 -0.40625,1.60937 -0.40625,0.73438 -1.60938,1.79688 -0.79687,0.70312 -1.04687,1.04687 -0.25,0.34375 -0.375,0.78125 -0.10938,0.4375 -0.125,1.42188 z m -0.0937,3.28125 v -1.875 h 1.85938 v 1.875 z"
     fill-rule="nonzero"
     id="path81" />
  <path
     fill="#000000"
     fill-opacity="0"
     d="m 124.7933,21.711285 15.18111,-0.44094"
     fill-rule="evenodd"
     id="path83" />
  <path
     stroke="#000000"
     stroke-width="1"
     stroke-linejoin="round"
     stroke-linecap="butt"
     d="m 124.7933,21.711285 9.18364,-0.26674"
     fill-rule="evenodd"
     id="path85" />
  <path
     fill="#000000"
     stroke="#000000"
     stroke-width="1"
     stroke-linecap="butt"
     d="m 134.02488,23.095575 4.48824,-1.78279 -4.58414,-1.51928 z"
     fill-rule="evenodd"
     id="path87" />
  <path
     fill="#000000"
     fill-opacity="0"
     d="m 170.24213,21.270335 17.41733,0.53544"
     fill-rule="evenodd"
     id="path89" />
  <path
     stroke="#000000"
     stroke-width="1"
     stroke-linejoin="round"
     stroke-linecap="butt"
     d="m 170.24213,21.270335 11.42015,0.35107"
     fill-rule="evenodd"
     id="path91" />
  <path
     fill="#000000"
     stroke="#000000"
     stroke-width="1"
     stroke-linecap="butt"
     d="m 181.61153,23.272365 4.58672,-1.51151 -4.48522,-1.79039 z"
     fill-rule="evenodd"
     id="path93" />
  <path
     fill="#000000"
     fill-opacity="0"
     d="m 217.93045,21.808395 17.41731,-0.66142"
     fill-rule="evenodd"
     id="path95" />
  <path
     stroke="#000000"
     stroke-width="1"
     stroke-linejoin="round"
     stroke-linecap="butt"
     d="m 217.93045,21.808395 11.42165,-0.43374"
     fill-rule="evenodd"
     id="path97" />
  <path
     fill="#000000"
     stroke="#000000"
     stroke-width="1"
     stroke-linecap="butt"
     d="m 229.41476,23.025205 4.47215,-1.82275 -4.5975,-1.47834 z"
     fill-rule="evenodd"
     id="path99" />
  <path
     fill="#000000"
     fill-opacity="0"
     d="m 265.61876,21.139105 17.41733,0.66142"
     fill-rule="evenodd"
     id="path101" />
  <path
     stroke="#000000"
     stroke-width="1"
     stroke-linejoin="round"
     stroke-linecap="butt"
     d="m 265.61876,21.139105 11.42166,0.43374"
     fill-rule="evenodd"
     id="path103" />
  <path
     fill="#000000"
     stroke="#000000"
     stroke-width="1"
     stroke-linecap="butt"
     d="m 276.97774,23.223385 4.5975,-1.47833 -4.47213,-1.82276 z"
     fill-rule="evenodd"
     id="path105" />
  <path
     fill="#000000"
     fill-opacity="0"
     d="m 424.99541,21.007875 h 18.29922"
     fill-rule="evenodd"
     id="path107" />
  <path
     stroke="#000000"
     stroke-width="1"
     stroke-linejoin="round"
     stroke-linecap="butt"
     d="m 424.99541,21.007875 h 12.29922"
     fill-rule="evenodd"
     id="path109" />
  <path
     fill="#000000"
     stroke="#000000"
     stroke-width="1"
     stroke-linecap="butt"
     d="m 437.29463,22.659605 4.53809,-1.65173 -4.53809,-1.65174 z"
     fill-rule="evenodd"
     id="path111" />
  <path
     fill="#000000"
     fill-opacity="0"
     d="m 313.30708,21.808395 81.41733,-0.7874"
     fill-rule="evenodd"
     id="path113" />
  <path
     stroke="#000000"
     stroke-width="1"
     stroke-linejoin="round"
     stroke-linecap="butt"
     stroke-dasharray="1, 3"
     d="m 313.30708,21.808395 81.41733,-0.7874"
     fill-rule="evenodd"
     id="path115" />
  <path
     fill="#000000"
     fill-opacity="0"
     d="m 139.97375,33.048605 v 19.05512"
     fill-rule="evenodd"
     id="path117" />
  <path
     stroke="#000000"
     stroke-width="1"
     stroke-linejoin="round"
     stroke-linecap="butt"
     d="m 139.97375,33.048605 v 19.05512"
     fill-rule="evenodd"
     id="path119" />
  <path
     fill="#000000"
     fill-opacity="0"
     d="m 425.68504,33.048605 v 19.05512"
     fill-rule="evenodd"
     id="path121" />
  <path
     stroke="#000000"
     stroke-width="1"
     stroke-linejoin="round"
     stroke-linecap="butt"
     d="m 425.68504,33.048605 v 19.05512"
     fill-rule="evenodd"
     id="path123" />
  <path
     fill="#000000"
     fill-opacity="0"
     d="m 139.95328,52.536785 284.8504,-0.56693"
     fill-rule="evenodd"
     id="path125" />
  <path
     stroke="#000000"
     stroke-width="1"
     stroke-linejoin="round"
     stroke-linecap="butt"
     d="m 139.95328,52.536785 284.8504,-0.56693"
     fill-rule="evenodd"
     id="path127" />
  <path
     fill="#000000"
     fill-opacity="0"
     d="m 181.05249,132.51554 97.70079,-97.700785 41.16534,41.10237 -97.70077,97.700785 z"
     fill-rule="evenodd"
     id="path129" />
  <path
     fill="#000000"
     d="m 227.79998,120.21831 -8.1048,-8.09238 1.07172,-1.07171 8.10478,8.09237 z m 2.83394,-2.83395 -5.87126,-5.86229 0.89492,-0.89493 0.82929,0.828 q -0.32115,-1.6013 0.90524,-2.82768 0.53032,-0.53034 1.16024,-0.78459 0.62991,-0.25426 1.16047,-0.16611 0.53058,0.0881 1.05019,0.43033 0.33166,0.22075 1.01719,0.90524 l 3.61565,3.61011 -0.99438,0.99437 -3.5714,-3.56595 q -0.60814,-0.60721 -1.02821,-0.78375 -0.42008,-0.19864 -0.89531,-0.077 -0.46417,0.11061 -0.86193,0.50836 -0.6408,0.64081 -0.69574,1.51334 -0.0549,0.85043 1.07288,1.97652 l 3.20653,3.20163 z m 7.56204,-9.35192 1.0282,0.73957 q -0.33139,0.50817 -0.66284,0.83963 -0.54138,0.54139 -1.00556,0.6741 -0.47522,0.12165 -0.87317,-0.0328 -0.40902,-0.16549 -1.30462,-1.05975 l -3.37241,-3.36722 -0.7292,0.7292 -0.77399,-0.77281 0.7292,-0.7292 -1.45951,-1.45729 0.39729,-1.59053 2.05659,2.05345 0.99437,-0.99437 0.77399,0.77281 -0.99435,0.99437 3.42767,3.42243 q 0.43121,0.43055 0.59705,0.50781 0.17684,0.0662 0.37579,0.0219 0.18786,-0.0553 0.40884,-0.27626 0.16574,-0.16574 0.38666,-0.47507 z m 3.99329,-5.98202 1.14914,-0.90607 q 0.6636,1.14835 0.49826,2.30807 -0.1543,1.14866 -1.17075,2.16513 -1.29269,1.29268 -2.84009,1.2491 -1.54742,-0.0436 -2.97375,-1.46776 -1.48166,-1.47936 -1.53751,-3.05869 -0.0559,-1.57931 1.15946,-2.794655 1.17114,-1.17114 2.71856,-1.10547 1.5474,0.0436 2.99588,1.48984 0.0884,0.0883 0.26535,0.264945 l -4.37521,4.37523 q 1.02826,0.91629 2.03406,0.94904 1.00583,0.0106 1.73501,-0.71855 0.55243,-0.55243 0.65165,-1.22617 0.0992,-0.67374 -0.31006,-1.52399 z m -4.87363,1.64747 3.27036,-3.27038 q -0.8071,-0.673395 -1.48136,-0.728355 -1.05005,-0.099 -1.80133,0.652305 -0.68503,0.68502 -0.69571,1.62378 -0.0107,0.91669 0.70804,1.72265 z m 9.03485,-2.0301 -5.87128,-5.862285 0.89496,-0.89492 0.88455,0.88321 q -0.2767,-0.96076 -0.18844,-1.44674 0.0882,-0.48599 0.44177,-0.83953 0.49719,-0.4972 1.33713,-0.69631 l 0.57522,1.25884 q -0.57467,0.15483 -0.9393,0.51944 -0.3204,0.3204 -0.38653,0.78428 -0.0661,0.44181 0.17718,0.90558 0.36502,0.69565 0.99527,1.32494 l 3.07386,3.069125 z m 3.7786,-3.778585 -5.87125,-5.86229 0.88388,-0.88388 0.81821,0.81695 q -0.155,-0.70677 0.0437,-1.41368 0.19867,-0.729 0.78424,-1.31457 0.65188,-0.65187 1.34814,-0.7957 0.68521,-0.15489 1.33744,0.16514 -0.33225,-1.72279 0.78366,-2.83868 0.87283,-0.87283 1.82339,-0.85112 0.95053,-3.7e-4 1.95673,1.00429 l 4.03579,4.02963 -0.9833,0.98332 -3.7041,-3.69842 q -0.59708,-0.59618 -0.95084,-0.75066 -0.36481,-0.16553 -0.77371,-0.066 -0.41999,0.0885 -0.76248,0.43101 -0.61872,0.61872 -0.61841,1.43601 3.3e-4,0.81727 0.90698,1.72256 l 3.41663,3.41138 -0.99436,0.99437 -3.81466,-3.80882 q -0.66343,-0.66242 -1.23822,-0.75055 -0.57477,-0.0881 -1.1272,0.46429 -0.41983,0.41985 -0.55225,0.9942 -0.13241,0.57436 0.13309,1.17066 0.26547,0.5742 1.06158,1.36908 l 3.05173,3.04707 z m 11.54428,-15.32289 1.14917,-0.90607 q 0.6636,1.14835 0.49823,2.30806 -0.1543,1.14867 -1.17075,2.16515 -1.29269,1.29268 -2.84009,1.24908 -1.54739,-0.0436 -2.97375,-1.46776 -1.48166,-1.47937 -1.53751,-3.05868 -0.0559,-1.57932 1.15946,-2.79465 1.17114,-1.17114 2.71856,-1.10547 1.5474,0.0436 2.99588,1.48982 0.0884,0.0883 0.26535,0.26497 l -4.37521,4.37523 q 1.02826,0.91628 2.03409,0.94902 1.0058,0.0107 1.73498,-0.71853 0.55243,-0.55243 0.65168,-1.22617 0.0992,-0.67375 -0.31009,-1.524 z m -4.87363,1.64747 3.27036,-3.27037 q -0.8071,-0.6734 -1.48136,-0.72836 -1.05005,-0.099 -1.80133,0.6523 -0.68503,0.68501 -0.69571,1.62378 -0.0107,0.91668 0.70804,1.72265 z m 12.84662,-5.84184 -0.74081,-0.73968 q 0.32107,1.42459 -0.76169,2.50735 -0.70713,0.70711 -1.67969,0.90627 -0.97257,0.19917 -2.00061,-0.16489 -1.017,-0.37512 -1.91263,-1.26936 -0.88455,-0.88321 -1.30493,-1.87705 -0.42041,-1.01591 -0.21076,-1.97685 0.19858,-0.97197 0.92777,-1.70117 0.53033,-0.53034 1.16028,-0.71833 0.64099,-0.19905 1.25998,-0.0888 l -2.90799,-2.90355 0.99435,-0.99437 8.1048,8.09238 z m -6.0679,0.21216 q 1.12781,1.1261 2.16681,1.21405 1.02795,0.0769 1.66876,-0.5639 0.65185,-0.65186 0.5741,-1.63477 -0.0777,-1.005 -1.1724,-2.09798 -1.2052,-1.20337 -2.23315,-1.30238 -1.02796,-0.099 -1.71295,0.58601 -0.66291,0.66291 -0.56305,1.64582 0.0999,0.98291 1.27188,2.15315 z m 1.59341,-9.65886 -1.13885,-1.13713 0.99435,-0.99437 1.13889,1.13713 z m 6.96591,6.95525 -5.87124,-5.86228 0.99435,-0.99437 5.87128,5.86229 z m 5.6066,-7.06498 q -0.077,1.02715 -0.3862,1.7341 -0.32025,0.69591 -0.90582,1.28148 -0.97229,0.97228 -1.96701,1.01683 -0.99472,0.0446 -1.72449,-0.68408 -0.43121,-0.43055 -0.58618,-0.98271 -0.16602,-0.5632 -0.0667,-1.08232 0.0993,-0.54121 0.38644,-1.04936 0.22092,-0.3756 0.74014,-1.02741 1.06058,-1.34781 1.43607,-2.12106 -0.21008,-0.20975 -0.26538,-0.26495 -0.60812,-0.60721 -1.12759,-0.57387 -0.72947,0.0444 -1.48078,0.79574 -0.69604,0.69606 -0.78424,1.2925 -0.0882,0.57432 0.37631,1.34726 l -1.10495,0.83978 q -0.48663,-0.75082 -0.57531,-1.43553 -0.0776,-0.69577 0.29788,-1.46901 0.36444,-0.78429 1.11572,-1.53558 0.75131,-0.75132 1.39227,-1.03871 0.65198,-0.29844 1.13834,-0.25444 0.48633,0.044 0.98383,0.36407 0.30957,0.19868 0.97299,0.86108 l 1.32681,1.32482 q 1.39319,1.39105 1.81332,1.70013 0.43119,0.29804 0.96177,0.45244 l -1.03858,1.03857 q -0.46426,-0.15444 -0.92862,-0.52977 z m -2.2998,-2.14172 q -0.32025,0.76218 -1.2482,1.9995 -0.53028,0.70704 -0.6738,1.07156 -0.14355,0.36452 -0.066,0.72894 0.0775,0.34235 0.33182,0.59627 0.39804,0.39745 0.96173,0.36409 0.57471,-0.0444 1.14923,-0.61891 0.57452,-0.57452 0.77322,-1.25935 0.19867,-0.70691 -0.0337,-1.35843 -0.16598,-0.49694 -0.8294,-1.15935 z m 6.7688,-2.65875 1.02819,0.73958 q -0.33139,0.50816 -0.66284,0.83963 -0.54138,0.54136 -1.00555,0.67408 -0.47522,0.12166 -0.87317,-0.0328 -0.40903,-0.16551 -1.30463,-1.05976 l -3.3724,-3.36721 -0.72919,0.7292 -0.77399,-0.77281 0.72919,-0.72921 -1.45953,-1.45729 0.3973,-1.59053 2.05661,2.05346 0.99436,-0.99437 0.77399,0.77281 -0.99436,0.99437 3.42767,3.42242 q 0.43122,0.43056 0.59705,0.50781 0.17685,0.0662 0.37579,0.022 0.18787,-0.0553 0.40885,-0.27628 0.16574,-0.16573 0.38666,-0.47505 z m 3.99328,-5.98203 1.14914,-0.90606 q 0.66361,1.14836 0.49826,2.30807 -0.15429,1.14867 -1.17074,2.16513 -1.2927,1.29268 -2.84009,1.2491 -1.54743,-0.0436 -2.97376,-1.46776 -1.48166,-1.47937 -1.5375,-3.05868 -0.0559,-1.57932 1.15945,-2.79466 1.17114,-1.17115 2.71857,-1.10547 1.54739,0.0436 2.99588,1.48983 0.0884,0.0883 0.26535,0.26497 l -4.37521,4.37522 q 1.02825,0.91629 2.03408,0.94903 1.0058,0.0106 1.73499,-0.71855 0.55243,-0.55243 0.65164,-1.22616 0.0992,-0.67374 -0.31006,-1.52401 z m -4.87362,1.64748 3.27035,-3.27037 q -0.8071,-0.6734 -1.48135,-0.72836 -1.05005,-0.099 -1.80133,0.65231 -0.68503,0.685 -0.69571,1.62378 -0.0107,0.91667 0.70804,1.72264 z"
     fill-rule="nonzero"
     id="path131" />
  <path
     fill="#000000"
     d="m 235.19246,135.66978 1.11603,-0.85082 q 0.84045,1.17035 0.7525,2.40735 -0.0769,1.22596 -1.03812,2.18718 -1.20431,1.2043 -2.72961,1.16069 -1.5253,-0.0657 -2.99588,-1.534 -0.9509,-0.94945 -1.34918,-1.96539 -0.3983,-1.03801 -0.11132,-2.0321 0.29804,-1.00514 1.04935,-1.75645 0.96121,-0.96122 2.05539,-1.08313 1.08312,-0.13294 2.14449,0.59558 l -0.81751,1.10473 q -0.72964,-0.44148 -1.38173,-0.38601 -0.64105,0.0444 -1.13823,0.54161 -0.75131,0.75129 -0.6846,1.76735 0.0667,0.99395 1.23874,2.16421 1.18311,1.18129 2.17789,1.26926 0.98373,0.0769 1.71292,-0.65227 0.58557,-0.58557 0.61844,-1.32556 0.0329,-0.76207 -0.61957,-1.61223 z m 0.67337,-2.24225 q -1.62537,-1.62289 -1.50446,-3.31273 0.10999,-1.41371 1.19275,-2.49646 1.21534,-1.21534 2.77381,-1.18279 1.55844,0.0104 2.96267,1.41254 1.12781,1.12608 1.43769,2.11994 0.30984,0.99387 0.0229,2.01006 -0.28699,0.9941 -1.0604,1.7675 -1.22638,1.2264 -2.77377,1.2049 -1.55844,-0.0326 -3.05115,-1.52296 z m 1.02753,-1.02751 q 1.1278,1.12608 2.17785,1.20299 1.06107,0.0659 1.80133,-0.6744 0.74027,-0.74024 0.66248,-1.78942 -0.0667,-1.06023 -1.22769,-2.21944 -1.08359,-1.08192 -2.14469,-1.14778 -1.05004,-0.0769 -1.79031,0.66333 -0.74023,0.74026 -0.67352,1.80049 0.0667,1.03813 1.19455,2.16423 z m 8.58142,-2.70363 -5.87125,-5.86227 0.89493,-0.89495 0.82925,0.82803 q -0.32113,-1.60131 0.90528,-2.8277 0.5303,-0.53033 1.16021,-0.78459 0.62992,-0.25426 1.1605,-0.1661 0.53054,0.0881 1.05017,0.43031 0.33166,0.22077 1.01721,0.90525 l 3.61563,3.6101 -0.99435,0.99437 -3.57141,-3.56594 q -0.60816,-0.60721 -1.02823,-0.78376 -0.42008,-0.19864 -0.8953,-0.077 -0.46417,0.11061 -0.86194,0.50836 -0.6408,0.64082 -0.69574,1.51334 -0.0549,0.85043 1.07288,1.97653 l 3.20654,3.20161 z m 6.52417,-6.52415 -5.09726,-5.08948 -0.87283,0.87283 -0.77402,-0.77281 0.87283,-0.87283 -0.63025,-0.62929 q -0.586,-0.58513 -0.763,-0.98265 -0.24338,-0.53003 -0.13305,-1.12647 0.12133,-0.60748 0.77319,-1.25935 0.41986,-0.41985 1.02759,-0.82872 l 0.72989,1.01581 q -0.36466,0.25415 -0.64087,0.53036 -0.45298,0.45299 -0.44178,0.83954 1.3e-4,0.37551 0.53086,0.90543 l 0.54181,0.54097 1.138,-1.138 0.77398,0.77281 -1.138,1.138 5.09729,5.08948 z m -4.05463,-9.86654 -1.13885,-1.13714 0.99435,-0.99437 1.13889,1.13713 z m 6.96591,6.95525 -5.87124,-5.86228 0.99435,-0.99437 5.87128,5.86228 z m 2.81223,-1.83995 1.11603,-0.82876 q 0.50857,0.3974 0.98382,0.3199 0.65207,-0.0996 1.29288,-0.74046 0.68503,-0.685 0.78424,-1.33665 0.0992,-0.65166 -0.26575,-1.28104 -0.22122,-0.37543 -1.20529,-1.35799 0.12213,1.42467 -0.85013,2.39695 -1.21536,1.21533 -2.75177,1.00607 -1.5364,-0.20924 -2.76373,-1.43469 -0.84033,-0.83905 -1.24966,-1.84394 -0.39829,-1.01591 -0.21079,-1.97685 0.19858,-0.97197 0.97199,-1.74536 1.03857,-1.03857 2.55285,-0.87349 l -0.70764,-0.70656 0.91702,-0.91704 5.07517,5.0674 q 1.37106,1.36898 1.66983,2.21927 0.29874,0.85031 0.0228,1.78917 -0.27597,0.93887 -1.15986,1.82277 -1.04962,1.04961 -2.17694,1.22675 -1.11624,0.16609 -2.04507,-0.80545 z m -2.69852,-4.35044 q 1.1499,1.14818 2.13364,1.22511 0.99478,0.0659 1.67978,-0.61912 0.68503,-0.68501 0.62939,-1.66794 -0.0667,-0.99396 -1.19452,-2.12006 -1.08358,-1.08192 -2.10046,-1.14779 -1.02795,-0.0769 -1.7019,0.59704 -0.66291,0.66291 -0.58518,1.66791 0.0778,1.00501 1.13925,2.06485 z m 12.5369,-6.46019 -0.86246,-0.86113 q 0.31012,1.67862 -0.87207,2.86081 -0.51929,0.51929 -1.17129,0.77355 -0.64097,0.24322 -1.1605,0.1661 -0.53054,-0.0882 -1.05017,-0.43031 -0.35379,-0.24284 -0.98404,-0.87213 l -3.63775,-3.63219 0.99438,-0.99438 3.25076,3.24579 q 0.78504,0.78384 1.10566,0.99357 0.49749,0.29801 1.01693,0.2205 0.53049,-0.0886 0.97245,-0.53051 0.453,-0.45297 0.61856,-1.06049 0.16552,-0.62958 -0.0778,-1.1817 -0.23233,-0.56318 -0.98422,-1.3139 l -3.14017,-3.13538 0.99435,-0.99437 5.87128,5.86228 z m 2.43619,-2.4362 -5.87128,-5.862295 0.89496,-0.89493 0.88455,0.8832 q -0.2767,-0.96074 -0.18845,-1.44674 0.0882,-0.48597 0.44178,-0.83953 0.49719,-0.49718 1.33712,-0.69629 l 0.57523,1.25882 q -0.57468,0.15484 -0.9393,0.51945 -0.32041,0.3204 -0.38654,0.78429 -0.0661,0.4418 0.17719,0.90556 0.36502,0.695645 0.99527,1.324935 l 3.07385,3.06916 z m 6.87164,-8.330055 q -0.077,1.02715 -0.38617,1.7341 -0.32028,0.69592 -0.90585,1.2815 -0.97226,0.972275 -1.96701,1.016835 -0.99472,0.0445 -1.72449,-0.6841 -0.43121,-0.430565 -0.58618,-0.982715 -0.16599,-0.56321 -0.0667,-1.08232 0.0992,-0.54122 0.38644,-1.04937 0.22089,-0.37558 0.74014,-1.0274 1.06055,-1.34781 1.43604,-2.12105 -0.21009,-0.20976 -0.26538,-0.26497 -0.60813,-0.60721 -1.1276,-0.57387 -0.72946,0.0445 -1.48077,0.79576 -0.69605,0.69605 -0.78424,1.29249 -0.0882,0.57434 0.37631,1.34725 l -1.10495,0.8398 q -0.4866,-0.75084 -0.57529,-1.43554 -0.0776,-0.69576 0.29785,-1.46901 0.36445,-0.78429 1.11576,-1.53559 0.75128,-0.75129 1.39224,-1.03869 0.65201,-0.29845 1.13834,-0.25446 0.48632,0.044 0.98382,0.36409 0.30957,0.19867 0.97299,0.86109 l 1.32685,1.32479 q 1.39316,1.39106 1.81329,1.70014 0.43118,0.29803 0.96176,0.45245 l -1.03857,1.03856 q -0.46427,-0.15445 -0.92862,-0.52977 z m -2.29981,-2.14172 q -0.32022,0.76219 -1.2482,1.99949 -0.53024,0.70705 -0.67379,1.07157 -0.14356,0.36451 -0.066,0.72894 0.0775,0.34235 0.33181,0.59627 0.39805,0.39744 0.96174,0.3641 0.5747,-0.0444 1.14923,-0.61892 0.57452,-0.57453 0.77322,-1.25936 0.19867,-0.70691 -0.0337,-1.35843 -0.16596,-0.49693 -0.82938,-1.15933 z m 6.7688,-2.65874 1.0282,0.73956 q -0.33139,0.50818 -0.66284,0.83963 -0.54138,0.54138 -1.00555,0.67409 -0.47522,0.12167 -0.87317,-0.0328 -0.40903,-0.16549 -1.30463,-1.05975 l -3.37241,-3.36722 -0.72918,0.72921 -0.77399,-0.77282 0.72919,-0.7292 -1.45951,-1.45729 0.39728,-1.59053 2.05661,2.05345 0.99436,-0.99437 0.77398,0.77281 -0.99435,0.99437 3.42767,3.42243 q 0.43122,0.43055 0.59705,0.50781 0.17685,0.0662 0.37579,0.0219 0.18787,-0.0553 0.40885,-0.27626 0.16574,-0.16572 0.38665,-0.47505 z m -5.0925,-7.0388 -1.13885,-1.13713 0.99435,-0.99437 1.13889,1.13713 z m 6.96592,6.95524 -5.87125,-5.86229 0.99435,-0.99437 5.87128,5.86229 z m -0.80326,-5.07455 q -1.62539,-1.6229 -1.50445,-3.31272 0.10998,-1.41372 1.19275,-2.49647 1.21533,-1.21535 2.7738,-1.1828 1.55844,0.0104 2.96268,1.41254 1.1278,1.12608 1.43768,2.11995 0.30985,0.99388 0.0229,2.01007 -0.28699,0.99409 -1.0604,1.76748 -1.22638,1.2264 -2.77377,1.2049 -1.55844,-0.0325 -3.05115,-1.52295 z m 1.0275,-1.02751 q 1.12784,1.12608 2.17789,1.20298 1.06106,0.0659 1.80133,-0.67439 0.74026,-0.74025 0.66247,-1.78943 -0.0667,-1.06022 -1.22769,-2.21943 -1.08359,-1.08193 -2.14468,-1.14778 -1.05005,-0.0769 -1.79032,0.66334 -0.74023,0.74025 -0.67352,1.80048 0.0667,1.03813 1.19452,2.16423 z m 8.58145,-2.70363 -5.87125,-5.86228 0.89493,-0.89492 0.82926,0.828 q -0.32114,-1.6013 0.90524,-2.8277 0.53033,-0.53033 1.16025,-0.78459 0.62991,-0.25426 1.16049,-0.16611 0.53055,0.0881 1.05017,0.43033 0.33166,0.22077 1.01721,0.90524 l 3.61563,3.61011 -0.99438,0.99437 -3.57141,-3.56595 q -0.60813,-0.60721 -1.0282,-0.78375 -0.42008,-0.19864 -0.8953,-0.077 -0.46417,0.11063 -0.86193,0.50837 -0.64081,0.64082 -0.69574,1.51333 -0.0549,0.85044 1.07287,1.97653 l 3.20655,3.20162 z m 4.13635,-7.64977 0.82852,-1.13787 q 0.67441,0.51882 1.3707,0.46333 0.69632,-0.0776 1.37027,-0.75154 0.685,-0.68502 0.74005,-1.29247 0.044,-0.6185 -0.33197,-0.99386 -0.33172,-0.3312 -0.81799,-0.24266 -0.34262,0.0774 -1.34818,0.68527 -1.37024,0.81779 -2.00015,1.04997 -0.62994,0.21008 -1.20474,0.0778 -0.56372,-0.14337 -0.99497,-0.57392 -0.39804,-0.39745 -0.55297,-0.90543 -0.15494,-0.50798 -0.0667,-1.03813 0.0551,-0.40866 0.34229,-0.91681 0.28717,-0.53024 0.74014,-0.98323 0.69608,-0.69606 1.41437,-1.01662 0.71832,-0.32056 1.30417,-0.22139 0.58581,0.0771 1.26022,0.55174 l -0.8396,1.10476 q -0.51962,-0.38636 -1.09433,-0.31987 -0.57473,0.0665 -1.14926,0.641 -0.685,0.68501 -0.75113,1.21517 -0.0661,0.50805 0.23242,0.80615 0.19904,0.19871 0.47538,0.23173 0.27633,0.033 0.64102,-0.11068 0.20996,-0.0995 1.13818,-0.62996 1.32605,-0.77361 1.93384,-1.00577 0.59677,-0.24321 1.17154,-0.13298 0.58585,0.0992 1.09445,0.60702 0.49759,0.4968 0.64154,1.23671 0.14398,0.71782 -0.16519,1.51314 -0.29813,0.78426 -0.98315,1.46927 -1.14905,1.14905 -2.2211,1.27095 -1.07209,0.12189 -2.17765,-0.65079 z"
     fill-rule="nonzero"
     id="path133" />
</svg>
